<svg width="164" height="26" viewBox="0 0 164 26" fill="none" xmlns="http://www.w3.org/2000/svg">
<path d="M159.98 5.05566C161.903 5.05566 163.461 6.61392 163.461 8.53613C163.461 10.4583 161.903 12.0166 159.98 12.0166C158.058 12.0166 156.5 10.4583 156.5 8.53613C156.5 6.61392 158.058 5.05566 159.98 5.05566ZM159.981 5.69824C158.414 5.69824 157.144 6.96882 157.144 8.53613C157.144 10.1035 158.414 11.374 159.981 11.374C161.549 11.3738 162.819 10.1034 162.819 8.53613C162.819 6.96894 161.549 5.69843 159.981 5.69824Z" fill="#030404"/>
<path d="M159.922 6.6086C161.371 6.52733 161.851 8.05503 161.851 8.05503H160.941C160.941 8.05503 160.511 7.41175 159.817 7.46603C159.122 7.5203 158.811 8.18667 158.905 8.69758C158.998 9.20849 159.39 9.56621 159.977 9.60713C160.565 9.64804 160.941 8.96531 160.941 8.96531H161.851C161.851 8.96531 161.371 10.5174 159.977 10.4646C158.584 10.4118 158.048 9.39367 158.051 8.58976C158.054 7.78584 158.474 6.68987 159.922 6.6086Z" fill="#030404"/>
<path d="M36.2266 11.6025L34.7812 14.7041H37.6641L36.2266 11.6025ZM28.1562 19.0635L33.7891 8.56348H38.6562L44.2891 19.0635H39.6797L38.8516 17.2666H33.5938L32.7656 19.0635H28.1562ZM48.7031 13.4229H53.7031C53.9453 13.4229 54.1562 13.3369 54.3281 13.165C54.5078 12.9854 54.5938 12.7744 54.5938 12.5322C54.5938 12.2822 54.5078 12.0713 54.3281 11.8994C54.1562 11.7197 53.9453 11.6338 53.7031 11.6338H48.7031V13.4229ZM44.6094 8.56348H54.7266C56.8906 8.54004 58.7266 10.3604 58.6953 12.5322C58.7266 14.6963 56.8906 16.5322 54.7266 16.501H48.7031V19.0635H44.6094V8.56348ZM59.8125 8.55566H69.9297C72.0938 8.53223 73.9297 10.3525 73.8984 12.5244C73.8984 13.3135 73.6875 14.0322 73.2656 14.6729C72.8516 15.3057 72.2969 15.79 71.6094 16.1104L73.8984 19.0557H69.5391L67.5625 16.4932H63.9062V19.0557H59.8125V8.55566ZM68.8984 11.626H63.9062V13.415H68.8984C69.1484 13.415 69.3594 13.3291 69.5312 13.1572C69.7109 12.9775 69.7969 12.7666 69.7969 12.5244C69.7969 12.0244 69.3984 11.626 68.8984 11.626ZM75.1719 19.0635V8.56348H87.4609V11.251H79.2656V12.5947H87.4609V15.0244H79.2656V16.3682H87.4609V19.0635H75.1719ZM92.8672 12.0088C92.8672 12.4697 94.1406 12.5322 95.7891 12.6104C98.7188 12.7588 102.836 12.9619 102.828 15.5947C102.828 18.5947 99.3906 19.3057 95.7031 19.3057C92.0234 19.2979 88.9688 18.8525 88.5781 15.5947H92.8672C93.3359 16.4072 94.4219 16.6182 95.7031 16.6182C96.9766 16.6182 98.5391 16.4072 98.5391 15.5947C98.5391 15.1338 97.2656 15.0635 95.6172 14.9854C92.6875 14.8369 88.5703 14.6338 88.5781 12.0088C88.5781 9.00879 92.0156 8.29004 95.7031 8.29004C99.3828 8.31348 102.438 8.72754 102.828 12.0088H98.5391C98.0703 11.1807 96.9844 10.9854 95.7031 10.9854C94.4297 10.9854 92.8672 11.1729 92.8672 12.0088ZM104.741 12.2666H116.264V15.3369H104.741V12.2666ZM122.473 12.0088C122.473 12.4697 123.747 12.5322 125.395 12.6104C128.325 12.7588 132.442 12.9619 132.434 15.5947C132.434 18.5947 128.997 19.3057 125.309 19.3057C121.63 19.2979 118.575 18.8525 118.184 15.5947H122.473C122.942 16.4072 124.028 16.6182 125.309 16.6182C126.583 16.6182 128.145 16.4072 128.145 15.5947C128.145 15.1338 126.872 15.0635 125.223 14.9854C122.294 14.8369 118.177 14.6338 118.184 12.0088C118.184 9.00879 121.622 8.29004 125.309 8.29004C128.989 8.31348 132.044 8.72754 132.434 12.0088H128.145C127.677 11.1807 126.591 10.9854 125.309 10.9854C124.036 10.9854 122.473 11.1729 122.473 12.0088ZM139.411 15.4619H137.622V19.0479H133.528V8.54785H137.622V12.1338H139.411L143.262 8.54785H148.637L143.192 13.7979L148.637 19.0479H143.262L139.411 15.4619ZM149.216 8.54785H153.309V19.0479H149.216V8.54785Z" fill="#030404"/>
<path d="M80 7.05566L82.6353 4.05566H87L82.8275 7.05566H80Z" fill="#030404"/>
<path d="M14.5775 1.48234C14.5428 0.885179 14.9054 0.691082 15.2901 0.47507L15.2152 0.986924L14.5782 1.48234H14.5775ZM7.08515 3.50941C6.60585 3.38419 6.12654 3.25974 5.64803 3.13452C5.30904 3.04608 4.85102 2.85042 4.51441 2.90051C4.1029 2.96155 3.96336 3.5055 3.87507 3.75047C3.60783 4.4979 3.19947 5.477 2.52781 6.8529C2.03353 8.06757 1.49431 9.13198 0.829746 10.2183C0.430062 10.8718 0.149417 11.6044 0.0295903 12.362C-0.250267 14.1269 1.51796 15.1263 2.67602 16.6595C3.24677 17.414 3.28697 18.4581 3.08595 19.3589L2.53806 21.8133L2.46553 22.0794L3.42572 22.3095C3.50692 22.0324 3.59364 21.7554 3.68981 21.476C4.16045 20.1095 4.59482 18.1051 6.01223 17.5705C6.866 17.2489 7.70872 17.0242 8.58141 16.7761C10.9811 16.0929 10.8999 13.975 10.9227 11.858C10.9338 10.8335 11.0662 9.85045 11.2002 8.82988C11.4659 7.07595 11.6307 5.77206 11.6614 5.32751C11.6677 5.23359 11.678 5.03323 11.5534 4.86888C11.417 4.68887 11.1868 4.64034 11.0457 4.62547L16.1076 0.591685C15.9752 0.300538 15.7497 0.0641774 15.4446 0L9.97675 4.34059L8.47498 3.90935C8.01144 3.77629 7.5479 3.64246 7.08437 3.50941H7.08515ZM12.7761 2.42152L13.4872 1.86819C13.4131 2.49118 12.9929 2.80737 12.538 3.10556C12.5507 2.89581 12.6389 2.52797 12.7761 2.42152ZM10.6531 4.13866L11.3768 3.54306C11.5053 3.91404 11.0883 4.45094 10.6326 4.49164C10.5782 4.49633 10.6066 4.17623 10.6524 4.13866H10.6531ZM9.44699 10.1447L5.47065 9.05763L10.8077 4.80861C10.9811 4.79609 11.3595 4.91818 11.3894 5.07158C11.4746 5.50204 11.3453 5.91528 11.2925 6.33948L10.7832 10.4218L9.44699 10.1447ZM7.35555 3.82404L9.76627 4.5112L4.42138 8.76805L3.55107 8.50351L4.393 6.29252L4.3662 6.16573L3.81673 7.39293L3.4202 8.50195L2.907 8.30707L3.47066 6.88107C2.98977 7.33814 2.91252 8.31098 2.65473 8.23663L2.2243 8.11297L2.90858 6.59775L3.08674 6.20486C3.68981 4.70843 4.15177 3.62211 4.27002 3.38497C4.31259 3.30044 4.393 3.15957 4.53963 3.11339C4.60901 3.09147 4.6705 3.09774 4.70912 3.104C4.91488 3.13765 5.94996 3.41941 7.35476 3.82482L7.35555 3.82404ZM8.09816 6.62671L8.21483 6.05225L9.42256 5.09271C9.44542 5.43317 9.27908 5.74388 8.98267 5.96537L8.09816 6.62593V6.62671ZM5.76233 8.52151C5.85693 8.14271 5.91921 7.99322 6.01854 7.78269L7.02997 7.0016L6.79347 7.68877L5.76233 8.52151ZM9.71581 15.4495C10.1147 14.9385 10.3812 14.2263 10.4127 13.5876L10.5593 10.6472L10.7596 10.6355C10.7288 11.1614 10.6618 11.7046 10.6689 12.2649C10.6933 14.065 10.5822 15.9137 8.6831 16.4529C9.04652 16.1038 9.39969 15.8542 9.71581 15.4495ZM8.44424 13.9422C8.12575 13.4914 8.37565 12.6297 8.53962 11.8329C8.62555 11.415 8.72488 10.835 8.78401 10.1228L10.3812 10.5345C10.1525 11.3054 10.002 11.9339 9.90501 12.38C9.7978 12.8699 9.70635 13.3591 9.31692 13.7841C9.22074 13.8889 8.9464 14.1887 8.6831 14.1261C8.55303 14.0956 8.47577 13.9883 8.44345 13.9429L8.44424 13.9422ZM2.16597 10.3568C2.21642 10.1385 2.28028 9.96081 2.33231 9.8348L2.87941 8.49725L3.34373 8.63343L3.08674 9.3253L2.59009 11.1896C2.52702 11.3798 2.46475 11.6232 2.434 11.9096C2.39931 12.2305 2.41508 12.5083 2.44346 12.7228C2.26845 12.3534 2.1841 12.0231 2.14153 11.7852C2.01382 11.0745 2.12892 10.5196 2.16676 10.3576L2.16597 10.3568ZM1.12616 14.5534C-0.407933 13.0812 0.356748 11.4917 1.34847 9.80897L2.26372 8.25619C2.22825 8.79153 1.99805 9.14529 1.74027 9.5507L1.35083 10.1635L0.79033 11.4518C0.674445 11.6991 0.546735 12.0552 0.513626 12.495C0.437157 13.5274 0.939324 14.2944 1.12616 14.5526V14.5534Z" fill="#030404"/>
<path d="M13.343 7.01887L14.8527 6.61659C15.142 6.53911 15.3832 6.51798 15.6931 6.38023L12.9063 4.54178C13.4463 3.1651 14.4782 2.1046 15.8397 1.48709C19.1672 -0.021079 23.1144 1.71876 24.1802 5.20703C24.7943 7.21767 24.2685 9.36605 22.7794 10.8429C22.5665 10.8773 22.3213 10.6911 22.1763 10.5979L20.7423 9.67363C21.2137 10.8977 21.7309 11.9723 22.375 13.0711C22.762 13.7317 23.0285 14.4697 23.1333 15.2297C23.3785 17 21.5921 17.965 20.4041 19.4756C19.8192 20.2191 19.7585 21.2616 19.9422 22.1671L20.4428 24.6317L20.5098 24.8993L19.5448 25.1114C19.4692 24.8328 19.3872 24.5542 19.2965 24.2732C18.8527 22.8981 18.4562 20.8859 17.0498 20.324C16.2023 19.9858 15.3643 19.7456 14.4972 19.481C12.1109 18.7524 12.2331 16.6361 12.2512 14.5198C12.2599 13.4953 12.1464 12.51 12.0321 11.487L11.6387 7.97684C11.6245 7.8524 11.6899 7.61134 11.7561 7.52055C11.831 7.41568 12.0872 7.33663 12.2686 7.28654L13.3415 7.02044L13.343 7.01887ZM22.2323 4.11602C22.6658 4.26394 22.8787 4.55665 23.0805 4.8838C23.5559 5.65393 23.6158 6.57276 23.1097 7.34289C23.3667 8.33608 22.8842 9.59615 22.0675 10.2364L22.6635 10.6488C24.71 8.52861 24.7273 5.25556 22.7171 3.08527C21.3091 1.56457 19.2216 0.859404 17.1704 1.28125C15.3415 1.65693 13.9177 2.80508 13.1838 4.46821L13.6371 4.74057C13.7932 4.12228 14.1511 3.75365 14.6927 3.52825C14.9528 2.69316 15.7396 2.18835 16.6272 2.26348C17.5133 1.57944 18.7526 1.56536 19.7025 2.17582C20.8212 2.10304 21.9958 3.06726 22.2315 4.11602H22.2323ZM21.9469 10.1119C22.7234 9.51945 23.1538 8.27816 22.9835 7.4689L21.9027 7.3562C21.3415 7.2975 20.7951 7.25915 20.2867 7.08462C21.2098 6.96252 22.7833 7.47359 23.0001 7.14331C23.4802 6.41232 23.3596 5.47627 22.8156 4.77736C22.6706 4.59109 22.3726 4.20681 22.1132 4.34534C21.2886 4.8971 20.6351 5.57018 19.7009 5.97482L21.7987 4.32342C21.9043 4.24046 21.9934 4.15359 22.0289 4.0761C22.2094 3.67382 20.8078 2.18287 19.7553 2.34801C19.4353 3.28641 19.2461 4.14419 18.8298 5.05129C18.9544 4.13089 19.2398 3.28641 19.5717 2.35114C19.0072 1.86981 18.1842 1.80172 17.4274 2.03495C17.2153 2.06547 16.9055 2.23374 16.8606 2.42862C17.2248 3.30597 17.6095 4.11602 17.8484 5.02781C17.4211 4.31872 17.1262 3.58225 16.833 2.7636C16.7707 2.58906 16.6217 2.45445 16.4459 2.40279C15.7112 2.40905 15.142 2.84891 14.8708 3.50946L15.8917 4.53004C16.2741 4.91276 16.7116 5.22738 16.956 5.73063L14.7368 3.70747C14.2205 3.864 13.8925 4.30229 13.7869 4.82119L14.7455 5.4614L15.5299 5.99203C15.7538 6.14309 16.032 6.29805 16.2906 6.23544L17.6946 5.89577C18.0352 5.81359 18.4972 5.62732 18.833 5.68367C19.2122 5.74706 19.343 6.24874 19.4558 6.54615C19.8113 7.48455 20.1558 8.34156 20.5807 9.2283C20.9654 9.56562 21.4613 9.82468 21.9453 10.1119H21.9469ZM18.8125 11.5504L19.6883 11.3023L18.889 9.07568L18.9181 8.94968L19.4439 10.187L19.8192 11.3031L20.3363 11.1176L19.8003 9.68067C20.2725 10.1471 20.3308 11.1208 20.5902 11.0519L21.023 10.9368L20.3679 9.40909L15.9761 6.55163L13.552 7.19262L12.5058 7.47046C12.3324 7.45481 11.9524 7.56986 11.9193 7.72169C11.8263 8.15059 11.9477 8.56618 11.9918 8.99116L12.4223 13.0829L13.7632 12.8316L17.7593 11.8204L18.8133 11.5504H18.8125ZM18.803 5.89499L17.4455 6.201L16.3198 6.50624L20.196 9.01464L19.1649 6.42406C19.101 6.26361 18.9378 6.03117 18.803 5.89577V5.89499ZM13.3509 18.1912C13.105 17.8242 12.997 17.479 12.9213 17.2387C12.7983 16.8474 12.7502 16.5046 12.7297 16.2557L12.6399 13.313L12.4404 13.2981C12.4609 13.824 12.5177 14.3688 12.4995 14.9291C12.4404 16.7285 12.5153 18.5794 14.4041 19.1539C13.8224 18.8244 13.5047 18.4205 13.3517 18.192L13.3509 18.1912ZM14.7802 16.2534C15.0151 15.7916 14.8968 15.2837 14.8354 15.0097C14.7195 14.494 14.5784 13.7904 14.4246 12.8222C13.8894 12.949 13.3549 13.0758 12.8196 13.2034C13.0466 13.9821 13.1799 14.6161 13.2603 15.0575C13.3777 15.7024 13.4298 16.1908 13.8208 16.4725C13.8862 16.5195 14.1408 16.7034 14.4034 16.6267C14.6186 16.5633 14.7274 16.3575 14.7802 16.2542V16.2534ZM21.0923 13.7317C21.1018 13.374 21.008 12.9842 20.8819 12.6579L20.3608 11.3102L19.8941 11.4369C19.9445 11.577 20.4798 13.0789 20.5981 14.0072C20.6414 14.3468 20.6729 14.7554 20.6729 14.7554C20.6974 15.0755 20.7092 15.3447 20.7147 15.5427C20.8275 15.3205 20.9583 15.0051 21.0348 14.6106C21.1018 14.2639 21.1057 13.9618 21.0916 13.7317H21.0923ZM22.6264 16.1947C22.5169 16.7488 22.2212 17.1534 21.9958 17.3984C23.5582 15.9552 22.8243 14.3523 21.8657 12.6508L20.9812 11.0808C21.0569 11.3148 21.1767 11.6647 21.3478 12.0818C21.5732 12.6328 21.6552 12.7322 21.9824 13.4437C22.5389 14.6536 22.617 15.0481 22.6485 15.3518C22.6722 15.5811 22.6942 15.8511 22.6264 16.1939V16.1947Z" fill="#030404"/>
</svg>
