<?xml version="1.0" encoding="UTF-8"?>
<svg id="Livello_1" xmlns="http://www.w3.org/2000/svg" version="1.1" viewBox="0 0 31.82 29.1">
  <!-- Generator: Adobe Illustrator 30.5.0, SVG Export Plug-In . SVG Version: 2.1.4 Build 167)  -->
  <defs>
    <style>
      .st0 {
        fill: #596f74;
        stroke: #596f74;
        stroke-miterlimit: 10;
        stroke-width: 3px;
      }
    </style>
  </defs>
  <path class="st0" d="M28.91,7.32c-.43-1.44-.91-2.79-3.49-3.28-2.35-.45-2.7.98-6.16.62S15.25.78,10.95,1.63c-4.56.91-3.32,6.18-4.83,8.37-1.3,1.89-4.26,3.78-4.59,7.13-.41,4.24,3.67,4.65,5.07,5.45,3.11,1.77,3.95,4.45,6.7,4.92,4.29.73,6.11-2.75,7.9-5.38,3.23-4.74,7.54-3.38,8.84-7.47.89-2.79-.61-5.6-1.04-7.05,0,0-.09-.28-.09-.28ZM22.64,15.97c-2.44,1.17-2.64,2.64-3.89,4.64-3.16,5.81-6.12.46-10.11.14s-4.65-4.48-2.09-6.77c2.85-2.54,1.64-6.39,5.14-7.6,3.24-1.12,5.17,2.23,8.97,1.89,4.79-.43,6.77,5.4,1.98,7.7Z"/>
</svg>