<svg width="365" height="339" viewBox="0 0 365 339" fill="none" xmlns="http://www.w3.org/2000/svg">
<path d="M20.7969 18.5156C20.7969 16.3906 19.5938 14.6719 17.4688 14.6719H8.5V22.3594H17.4688C19.5938 22.3594 20.7969 20.625 20.7969 18.5156ZM0.3125 8.01562H19C24.7656 7.9375 29.0469 12.7812 29 18.5156C29.0469 24.2188 24.7656 29.0938 19 29.0156H0.3125V8.01562ZM31.4375 7.98438H39.625V28.9844H31.4375V7.98438ZM43.9688 29.0156V8.01562H68.5469V13.3906H52.1562V16.0781H68.5469V20.9375H52.1562V23.625H68.5469V29.0156H43.9688ZM89.0469 29.0156H80.8594V14.6719H71.125V8.01562H98.7812V14.6719H89.0469V29.0156ZM101.531 8H121.766C126.094 7.95312 129.766 11.5938 129.703 15.9375C129.703 17.5156 129.281 18.9531 128.438 20.2344C127.609 21.5 126.5 22.4688 125.125 23.1094L129.703 29H120.984L117.031 23.875H109.719V29H101.531V8ZM119.703 14.1406H109.719V17.7188H119.703C120.203 17.7188 120.625 17.5469 120.969 17.2031C121.328 16.8438 121.5 16.4219 121.5 15.9375C121.5 14.9375 120.703 14.1406 119.703 14.1406ZM146 7.46875C153.906 7.46875 160.328 9.78125 160.328 17.7188V19.25C160.359 27.1875 153.891 29.4844 146 29.5C138.094 29.4844 131.625 27.1875 131.656 19.25V17.7188C131.625 9.76562 138.094 7.48438 146 7.46875ZM152.141 18.7344V18.2188C152.188 14.7969 149.344 14.1719 146 14.125C142.641 14.1719 139.797 14.7969 139.844 18.2188V18.7344C139.797 22.1719 142.641 22.7969 146 22.8438C149.344 22.7969 152.188 22.1719 152.141 18.7344ZM192.734 14.0938L189.844 20.2969H195.609L192.734 14.0938ZM176.594 29.0156L187.859 8.01562H197.594L208.859 29.0156H199.641L197.984 25.4219H187.469L185.812 29.0156H176.594ZM229.984 18.5156C229.984 16.3906 228.781 14.6719 226.656 14.6719H217.688V22.3594H226.656C228.781 22.3594 229.984 20.625 229.984 18.5156ZM209.5 8.01562H228.188C233.953 7.9375 238.234 12.7812 238.188 18.5156C238.234 24.2188 233.953 29.0938 228.188 29.0156H209.5V8.01562ZM268.781 7.46875C276.688 7.46875 283.109 9.78125 283.109 17.7188V19.25C283.141 27.1875 276.672 29.4844 268.781 29.5C260.875 29.4844 254.406 27.1875 254.438 19.25V17.7188C254.406 9.76562 260.875 7.48438 268.781 7.46875ZM274.922 18.7344V18.2188C274.969 14.7969 272.125 14.1719 268.781 14.125C265.422 14.1719 262.578 14.7969 262.625 18.2188V18.7344C262.578 22.1719 265.422 22.7969 268.781 22.8438C272.125 22.7969 274.969 22.1719 274.922 18.7344ZM299.594 21.0469V17.4531H313.859V29.5H309.766L309.359 26.2344C306.922 28.6406 303.219 29.5 299.656 29.5C291.75 29.4688 285.281 27.1875 285.312 19.25V17.7188C285.281 9.76562 291.75 7.48438 299.656 7.46875C306.938 7.46875 312.938 9.45312 313.859 15.9219H305.156C304.641 15.2188 303.891 14.75 302.922 14.5C301.953 14.25 300.859 14.125 299.656 14.125C296.297 14.1719 293.453 14.7969 293.5 18.2188V18.7344C293.453 22.1875 296.297 22.7812 299.656 22.8281C302.891 22.8281 304.953 22.6406 306.188 21.0469H299.594ZM338.109 19.1094V7.98438H346.312V28.9844H337.094L325.812 16.1562V28.9844H317.625V7.98438H328.891L338.109 19.1094ZM351.094 7.98438H359.281V28.9844H351.094V7.98438ZM0.3125 44.9844H8.5V65.9844H0.3125V44.9844ZM12.8438 65.9844V44.9844H23.0938L31.2812 55.4844L39.4844 44.9844H49.7188V65.9844H41.5312V54.7812L33.3281 65.9844H29.2344L21.0312 54.7812V65.9844H12.8438ZM54.5 65.9844V44.9844H64.75L72.9375 55.4844L81.1406 44.9844H91.375V65.9844H83.1875V54.7812L74.9844 65.9844H70.8906L62.6875 54.7812V65.9844H54.5ZM108.141 51.0938L105.25 57.2969H111.016L108.141 51.0938ZM92 66.0156L103.266 45.0156H113L124.266 66.0156H115.047L113.391 62.4219H102.875L101.219 66.0156H92ZM137.219 58.0469V54.4531H151.484V66.5H147.391L146.984 63.2344C144.547 65.6406 140.844 66.5 137.281 66.5C129.375 66.4688 122.906 64.1875 122.938 56.25V54.7188C122.906 46.7656 129.375 44.4844 137.281 44.4688C144.562 44.4688 150.562 46.4531 151.484 52.9219H142.781C142.266 52.2188 141.516 51.75 140.547 51.5C139.578 51.25 138.484 51.125 137.281 51.125C133.922 51.1719 131.078 51.7969 131.125 55.2188V55.7344C131.078 59.1875 133.922 59.7812 137.281 59.8281C140.516 59.8281 142.578 59.6406 143.812 58.0469H137.219ZM155.25 44.9844H163.438V65.9844H155.25V44.9844ZM188.266 56.1094V44.9844H196.469V65.9844H187.25L175.969 53.1562V65.9844H167.781V44.9844H179.047L188.266 56.1094ZM201.25 66.0156V45.0156H225.828V50.3906H209.438V53.0781H225.828V57.9375H209.438V60.625H225.828V66.0156H201.25ZM0.3125 82H20.5469C24.875 81.9531 28.5469 85.5938 28.4844 89.9375C28.4844 91.5156 28.0625 92.9531 27.2188 94.2344C26.3906 95.5 25.2812 96.4688 23.9062 97.1094L28.4844 103H19.7656L15.8125 97.875H8.5V103H0.3125V82ZM18.4844 88.1406H8.5V91.7188H18.4844C18.9844 91.7188 19.4062 91.5469 19.75 91.2031C20.1094 90.8438 20.2812 90.4219 20.2812 89.9375C20.2812 88.9375 19.4844 88.1406 18.4844 88.1406ZM31.0312 81.9844H39.2188V102.984H31.0312V81.9844ZM43.5625 102.984V81.9844H53.8125L62 92.4844L70.2031 81.9844H80.4375V102.984H72.25V91.7812L64.0469 102.984H59.9531L51.75 91.7812V102.984H43.5625ZM97.2031 88.0938L94.3125 94.2969H100.078L97.2031 88.0938ZM81.0625 103.016L92.3281 82.0156H102.062L113.328 103.016H104.109L102.453 99.4219H91.9375L90.2812 103.016H81.0625ZM134.453 93.1094V81.9844H142.656V102.984H133.438L122.156 90.1562V102.984H113.969V81.9844H125.234L134.453 93.1094ZM159.844 95.0469V91.4531H174.109V103.5H170.016L169.609 100.234C167.172 102.641 163.469 103.5 159.906 103.5C152 103.469 145.531 101.188 145.562 93.25V91.7188C145.531 83.7656 152 81.4844 159.906 81.4688C167.188 81.4688 173.188 83.4531 174.109 89.9219H165.406C164.891 89.2188 164.141 88.75 163.172 88.5C162.203 88.25 161.109 88.125 159.906 88.125C156.547 88.1719 153.703 88.7969 153.75 92.2188V92.7344C153.703 96.1875 156.547 96.7812 159.906 96.8281C163.141 96.8281 165.203 96.6406 166.438 95.0469H159.844ZM191.031 81.4688C198.938 81.4688 205.359 83.7812 205.359 91.7188V93.25C205.391 101.188 198.922 103.484 191.031 103.5C183.125 103.484 176.656 101.188 176.688 93.25V91.7188C176.656 83.7656 183.125 81.4844 191.031 81.4688ZM197.172 92.7344V92.2188C197.219 88.7969 194.375 88.1719 191.031 88.125C187.672 88.1719 184.828 88.7969 184.875 92.2188V92.7344C184.828 96.1719 187.672 96.7969 191.031 96.8438C194.375 96.7969 197.219 96.1719 197.172 92.7344ZM228.297 93.1094V81.9844H236.5V102.984H227.281L216 90.1562V102.984H207.812V81.9844H219.078L228.297 93.1094ZM253.75 81.4688C261.656 81.4688 268.078 83.7812 268.078 91.7188V93.25C268.109 101.188 261.641 103.484 253.75 103.5C245.844 103.484 239.375 101.188 239.406 93.25V91.7188C239.375 83.7656 245.844 81.4844 253.75 81.4688ZM259.891 92.7344V92.2188C259.938 88.7969 257.094 88.1719 253.75 88.125C250.391 88.1719 247.547 88.7969 247.594 92.2188V92.7344C247.547 96.1719 250.391 96.7969 253.75 96.8438C257.094 96.7969 259.938 96.1719 259.891 92.7344ZM0.3125 118.984H8.5V133.328H24.8906V139.984H0.3125V118.984ZM32.8988 117.536C32.7068 118.304 32.4614 119.221 32.1628 120.288C31.8641 121.355 31.5441 122.432 31.2028 123.52C30.8614 124.587 30.5094 125.515 30.1468 126.304H25.7948C25.9441 125.579 26.0934 124.821 26.2428 124.032C26.3921 123.221 26.5308 122.421 26.6588 121.632C26.8081 120.821 26.9361 120.043 27.0428 119.296C27.1708 118.528 27.2668 117.824 27.3307 117.184H32.6748L32.8988 117.536ZM33.5312 140.016V119.016H58.1094V124.391H41.7188V127.078H58.1094V131.938H41.7188V134.625H58.1094V140.016H33.5312ZM68.9219 125.906C68.9219 126.828 71.4688 126.953 74.7656 127.109C80.625 127.406 88.8594 127.812 88.8438 133.078C88.8438 139.078 81.9688 140.5 74.5938 140.5C67.2344 140.484 61.125 139.594 60.3438 133.078H68.9219C69.8594 134.703 72.0312 135.125 74.5938 135.125C77.1406 135.125 80.2656 134.703 80.2656 133.078C80.2656 132.156 77.7188 132.016 74.4219 131.859C68.5625 131.562 60.3281 131.156 60.3438 125.906C60.3438 119.906 67.2188 118.469 74.5938 118.469C81.9531 118.516 88.0625 119.344 88.8438 125.906H80.2656C79.3281 124.25 77.1562 123.859 74.5938 123.859C72.0469 123.859 68.9219 124.234 68.9219 125.906ZM99.2188 128.734H109.219C109.703 128.734 110.125 128.562 110.469 128.219C110.828 127.859 111 127.438 111 126.953C111 126.453 110.828 126.031 110.469 125.688C110.125 125.328 109.703 125.156 109.219 125.156H99.2188V128.734ZM91.0312 119.016H111.266C115.594 118.969 119.266 122.609 119.203 126.953C119.266 131.281 115.594 134.953 111.266 134.891H99.2188V140.016H91.0312V119.016ZM121.438 140.016V119.016H146.016V124.391H129.625V127.078H146.016V131.938H129.625V134.625H146.016V140.016H121.438ZM150.375 119H170.609C174.938 118.953 178.609 122.594 178.547 126.938C178.547 128.516 178.125 129.953 177.281 131.234C176.453 132.5 175.344 133.469 173.969 134.109L178.547 140H169.828L165.875 134.875H158.562V140H150.375V119ZM168.547 125.141H158.562V128.719H168.547C169.047 128.719 169.469 128.547 169.812 128.203C170.172 127.844 170.344 127.422 170.344 126.938C170.344 125.938 169.547 125.141 168.547 125.141ZM181.094 118.984H189.281V139.984H181.094V118.984ZM193.625 140.016V119.016H218.203V124.391H201.812V127.078H218.203V131.938H201.812V134.625H218.203V140.016H193.625ZM243.047 130.109V118.984H251.25V139.984H242.031L230.75 127.156V139.984H222.562V118.984H233.828L243.047 130.109ZM268.953 125.672H255.125V119.016H282.266V125.672L267.938 133.344H282.266V140.016H255.125V133.344L268.953 125.672ZM299.047 125.094L296.156 131.297H301.922L299.047 125.094ZM282.906 140.016L294.172 119.016H303.906L315.172 140.016H305.953L304.297 136.422H293.781L292.125 140.016H282.906ZM320.422 146.141H317.344L319.391 140H315.812V133.844H324V140L320.422 146.141ZM0.3125 155.984H8.5V170.328H24.8906V176.984H0.3125V155.984ZM41.6719 162.094L38.7812 168.297H44.5469L41.6719 162.094ZM25.5312 177.016L36.7969 156.016H46.5312L57.7969 177.016H48.5781L46.9219 173.422H36.4062L34.75 177.016H25.5312ZM82.25 165.734H92.25C92.7344 165.734 93.1562 165.562 93.5 165.219C93.8594 164.859 94.0312 164.438 94.0312 163.953C94.0312 163.453 93.8594 163.031 93.5 162.688C93.1562 162.328 92.7344 162.156 92.25 162.156H82.25V165.734ZM74.0625 156.016H94.2969C98.625 155.969 102.297 159.609 102.234 163.953C102.297 168.281 98.625 171.953 94.2969 171.891H82.25V177.016H74.0625V156.016ZM104.469 156H124.703C129.031 155.953 132.703 159.594 132.641 163.938C132.641 165.516 132.219 166.953 131.375 168.234C130.547 169.5 129.438 170.469 128.062 171.109L132.641 177H123.922L119.969 171.875H112.656V177H104.469V156ZM122.641 162.141H112.656V165.719H122.641C123.141 165.719 123.562 165.547 123.906 165.203C124.266 164.844 124.438 164.422 124.438 163.938C124.438 162.938 123.641 162.141 122.641 162.141ZM135.188 177.016V156.016H159.766V161.391H143.375V164.078H159.766V168.938H143.375V171.625H159.766V177.016H135.188ZM170.578 162.906C170.578 163.828 173.125 163.953 176.422 164.109C182.281 164.406 190.516 164.812 190.5 170.078C190.5 176.078 183.625 177.5 176.25 177.5C168.891 177.484 162.781 176.594 162 170.078H170.578C171.516 171.703 173.688 172.125 176.25 172.125C178.797 172.125 181.922 171.703 181.922 170.078C181.922 169.156 179.375 169.016 176.078 168.859C170.219 168.562 161.984 168.156 162 162.906C162 156.906 168.875 155.469 176.25 155.469C183.609 155.516 189.719 156.344 190.5 162.906H181.922C180.984 161.25 178.812 160.859 176.25 160.859C173.703 160.859 170.578 161.234 170.578 162.906ZM192.688 177.016V156.016H217.266V161.391H200.875V164.078H217.266V168.938H200.875V171.625H217.266V177.016H192.688ZM242.109 167.109V155.984H250.312V176.984H241.094L229.812 164.156V176.984H221.625V155.984H232.891L242.109 167.109ZM268.016 162.672H254.188V156.016H281.328V162.672L267 170.344H281.328V177.016H254.188V170.344L268.016 162.672ZM298.109 162.094L295.219 168.297H300.984L298.109 162.094ZM281.969 177.016L293.234 156.016H302.969L314.234 177.016H305.016L303.359 173.422H292.844L291.188 177.016H281.969ZM330.5 177.016V156.016H355.078V161.391H338.688V164.078H355.078V168.938H338.688V171.625H355.078V177.016H330.5ZM0.3125 192.984H8.5V207.328H24.8906V213.984H0.3125V192.984ZM41.6719 199.094L38.7812 205.297H44.5469L41.6719 199.094ZM25.5312 214.016L36.7969 193.016H46.5312L57.7969 214.016H48.5781L46.9219 210.422H36.4062L34.75 214.016H25.5312ZM82.6406 199.906C82.6406 200.828 85.1875 200.953 88.4844 201.109C94.3438 201.406 102.578 201.812 102.562 207.078C102.562 213.078 95.6875 214.5 88.3125 214.5C80.9531 214.484 74.8438 213.594 74.0625 207.078H82.6406C83.5781 208.703 85.75 209.125 88.3125 209.125C90.8594 209.125 93.9844 208.703 93.9844 207.078C93.9844 206.156 91.4375 206.016 88.1406 205.859C82.2812 205.562 74.0469 205.156 74.0625 199.906C74.0625 193.906 80.9375 192.469 88.3125 192.469C95.6719 192.516 101.781 193.344 102.562 199.906H93.9844C93.0469 198.25 90.875 197.859 88.3125 197.859C85.7656 197.859 82.6406 198.234 82.6406 199.906ZM104.75 214.016V193.016H129.328V198.391H112.938V201.078H129.328V205.938H112.938V208.625H129.328V214.016H104.75ZM154.172 204.109V192.984H162.375V213.984H153.156L141.875 201.156V213.984H133.688V192.984H144.953L154.172 204.109ZM173.734 199.906C173.734 200.828 176.281 200.953 179.578 201.109C185.438 201.406 193.672 201.812 193.656 207.078C193.656 213.078 186.781 214.5 179.406 214.5C172.047 214.484 165.938 213.594 165.156 207.078H173.734C174.672 208.703 176.844 209.125 179.406 209.125C181.953 209.125 185.078 208.703 185.078 207.078C185.078 206.156 182.531 206.016 179.234 205.859C173.375 205.562 165.141 205.156 165.156 199.906C165.156 193.906 172.031 192.469 179.406 192.469C186.766 192.516 192.875 193.344 193.656 199.906H185.078C184.141 198.25 181.969 197.859 179.406 197.859C176.859 197.859 173.734 198.234 173.734 199.906ZM195.844 192.984H204.031V213.984H195.844V192.984ZM216.562 209.016H227.578C228.281 209.016 228.859 208.312 228.859 207.609C228.859 206.906 228.281 206.203 227.578 206.203H216.562V209.016ZM226.047 198H216.562V200.828H226.047C226.75 200.828 227.328 200.109 227.328 199.406C227.328 198.703 226.75 198 226.047 198ZM232.578 203.156C234.953 203.922 236.547 205.734 236.547 208.375C236.594 212.047 233.5 214.016 229.891 214.016H208.375V193.016H228.344C231.984 193 235.062 194.984 235.016 198.641C235.016 200.656 234.078 202.203 232.578 203.156ZM238.75 192.984H246.938V213.984H238.75V192.984ZM251.281 192.984H259.469V207.328H275.859V213.984H251.281V192.984ZM278.656 192.984H286.844V213.984H278.656V192.984ZM307.328 214.016H299.141V199.672H289.406V193.016H317.062V199.672H307.328V214.016ZM327.766 199.094L324.875 205.297H330.641L327.766 199.094ZM311.625 214.016L322.891 193.016H332.625L343.891 214.016H334.672L333.016 210.422H322.5L320.844 214.016H311.625ZM20.7969 240.75V229.984H29V241.266C29.0312 249.203 22.5312 251.484 14.6562 251.5C6.78125 251.484 0.28125 249.203 0.3125 241.266V229.984H8.5V240.75C8.46875 244.203 11.2969 244.797 14.6562 244.844C18 244.797 20.8438 244.203 20.7969 240.75ZM32.6875 250.984V229.984H42.9375L51.125 240.484L59.3281 229.984H69.5625V250.984H61.375V239.781L53.1719 250.984H49.0781L40.875 239.781V250.984H32.6875ZM86.3281 236.094L83.4375 242.297H89.2031L86.3281 236.094ZM70.1875 251.016L81.4531 230.016H91.1875L102.453 251.016H93.2344L91.5781 247.422H81.0625L79.4062 251.016H70.1875ZM123.578 241.109V229.984H131.781V250.984H122.562L111.281 238.156V250.984H103.094V229.984H114.359L123.578 241.109ZM148.547 236.094L145.656 242.297H151.422L148.547 236.094ZM132.406 251.016L143.672 230.016H153.406L164.672 251.016H155.453L153.797 247.422H143.281L141.625 251.016H132.406ZM165.312 244.859H173.5V251H165.312V244.859Z" fill="#273B42"/>
<path d="M324.518 190L320 183H327.108L330 190H324.518Z" fill="#273B42"/>
</svg>
