<svg width="1441" height="339" viewBox="0 0 1441 339" fill="none" xmlns="http://www.w3.org/2000/svg">
<path d="M33.7949 28.9629C33.7949 25.5098 31.8398 22.7168 28.3867 22.7168H13.8125V35.209H28.3867C31.8398 35.209 33.7949 32.3906 33.7949 28.9629ZM0.507812 11.9004H30.875C40.2441 11.7734 47.2012 19.6445 47.125 28.9629C47.2012 38.2305 40.2441 46.1523 30.875 46.0254H0.507812V11.9004ZM51.0859 11.8496H64.3906V45.9746H51.0859V11.8496ZM71.4492 46.0254V11.9004H111.389V20.6348H84.7539V25.002H111.389V32.8984H84.7539V37.2656H111.389V46.0254H71.4492ZM144.701 46.0254H131.396V22.7168H115.578V11.9004H160.52V22.7168H144.701V46.0254ZM164.988 11.875H197.869C204.902 11.7988 210.869 17.7148 210.768 24.7734C210.768 27.3379 210.082 29.6738 208.711 31.7559C207.365 33.8125 205.562 35.3867 203.328 36.4277L210.768 46H196.6L190.176 37.6719H178.293V46H164.988V11.875ZM194.518 21.8535H178.293V27.668H194.518C195.33 27.668 196.016 27.3887 196.574 26.8301C197.158 26.2461 197.438 25.5605 197.438 24.7734C197.438 23.1484 196.143 21.8535 194.518 21.8535ZM237.25 11.0117C250.098 11.0117 260.533 14.7695 260.533 27.668V30.1562C260.584 43.0547 250.072 46.7871 237.25 46.8125C224.402 46.7871 213.891 43.0547 213.941 30.1562V27.668C213.891 14.7441 224.402 11.0371 237.25 11.0117ZM247.229 29.3184V28.4805C247.305 22.9199 242.684 21.9043 237.25 21.8281C231.791 21.9043 227.17 22.9199 227.246 28.4805V29.3184C227.17 34.9043 231.791 35.9199 237.25 35.9961C242.684 35.9199 247.305 34.9043 247.229 29.3184ZM313.193 21.7773L308.496 31.8574H317.865L313.193 21.7773ZM286.965 46.0254L305.271 11.9004H321.09L339.396 46.0254H324.416L321.725 40.1855H304.637L301.945 46.0254H286.965ZM373.725 28.9629C373.725 25.5098 371.77 22.7168 368.316 22.7168H353.742V35.209H368.316C371.77 35.209 373.725 32.3906 373.725 28.9629ZM340.438 11.9004H370.805C380.174 11.7734 387.131 19.6445 387.055 28.9629C387.131 38.2305 380.174 46.1523 370.805 46.0254H340.438V11.9004ZM436.77 11.0117C449.617 11.0117 460.053 14.7695 460.053 27.668V30.1562C460.104 43.0547 449.592 46.7871 436.77 46.8125C423.922 46.7871 413.41 43.0547 413.461 30.1562V27.668C413.41 14.7441 423.922 11.0371 436.77 11.0117ZM446.748 29.3184V28.4805C446.824 22.9199 442.203 21.9043 436.77 21.8281C431.311 21.9043 426.689 22.9199 426.766 28.4805V29.3184C426.689 34.9043 431.311 35.9199 436.77 35.9961C442.203 35.9199 446.824 34.9043 446.748 29.3184ZM486.84 33.0762V27.2363H510.021V46.8125H503.369L502.709 41.5059C498.748 45.416 492.73 46.8125 486.941 46.8125C474.094 46.7617 463.582 43.0547 463.633 30.1562V27.668C463.582 14.7441 474.094 11.0371 486.941 11.0117C498.773 11.0117 508.523 14.2363 510.021 24.748H495.879C495.041 23.6055 493.822 22.8438 492.248 22.4375C490.674 22.0312 488.896 21.8281 486.941 21.8281C481.482 21.9043 476.861 22.9199 476.938 28.4805V29.3184C476.861 34.9297 481.482 35.8945 486.941 35.9707C492.197 35.9707 495.549 35.666 497.555 33.0762H486.84ZM549.428 29.9277V11.8496H562.758V45.9746H547.777L529.445 25.1289V45.9746H516.141V11.8496H534.447L549.428 29.9277ZM570.527 11.8496H583.832V45.9746H570.527V11.8496ZM610.238 11.8496H623.543V45.9746H610.238V11.8496ZM630.602 45.9746V11.8496H647.258L660.562 28.9121L673.893 11.8496H690.523V45.9746H677.219V27.7695L663.889 45.9746H657.236L643.906 27.7695V45.9746H630.602ZM698.293 45.9746V11.8496H714.949L728.254 28.9121L741.584 11.8496H758.215V45.9746H744.91V27.7695L731.58 45.9746H724.928L711.598 27.7695V45.9746H698.293ZM785.459 21.7773L780.762 31.8574H790.131L785.459 21.7773ZM759.23 46.0254L777.537 11.9004H793.355L811.662 46.0254H796.682L793.99 40.1855H776.902L774.211 46.0254H759.23ZM832.711 33.0762V27.2363H855.893V46.8125H849.24L848.58 41.5059C844.619 45.416 838.602 46.8125 832.812 46.8125C819.965 46.7617 809.453 43.0547 809.504 30.1562V27.668C809.453 14.7441 819.965 11.0371 832.812 11.0117C844.645 11.0117 854.395 14.2363 855.893 24.748H841.75C840.912 23.6055 839.693 22.8438 838.119 22.4375C836.545 22.0312 834.768 21.8281 832.812 21.8281C827.354 21.9043 822.732 22.9199 822.809 28.4805V29.3184C822.732 34.9297 827.354 35.8945 832.812 35.9707C838.068 35.9707 841.42 35.666 843.426 33.0762H832.711ZM862.012 11.8496H875.316V45.9746H862.012V11.8496ZM915.662 29.9277V11.8496H928.992V45.9746H914.012L895.68 25.1289V45.9746H882.375V11.8496H900.682L915.662 29.9277ZM936.762 46.0254V11.9004H976.701V20.6348H950.066V25.002H976.701V32.8984H950.066V37.2656H976.701V46.0254H936.762ZM1003.13 11.875H1036.01C1043.05 11.7988 1049.01 17.7148 1048.91 24.7734C1048.91 27.3379 1048.23 29.6738 1046.86 31.7559C1045.51 33.8125 1043.71 35.3867 1041.47 36.4277L1048.91 46H1034.74L1028.32 37.6719H1016.44V46H1003.13V11.875ZM1032.66 21.8535H1016.44V27.668H1032.66C1033.47 27.668 1034.16 27.3887 1034.72 26.8301C1035.3 26.2461 1035.58 25.5605 1035.58 24.7734C1035.58 23.1484 1034.29 21.8535 1032.66 21.8535ZM1053.05 11.8496H1066.36V45.9746H1053.05V11.8496ZM1073.41 45.9746V11.8496H1090.07L1103.38 28.9121L1116.71 11.8496H1133.34V45.9746H1120.03V27.7695L1106.7 45.9746H1100.05L1086.72 27.7695V45.9746H1073.41ZM1160.58 21.7773L1155.88 31.8574H1165.25L1160.58 21.7773ZM1134.35 46.0254L1152.66 11.9004H1168.48L1186.78 46.0254H1171.8L1169.11 40.1855H1152.02L1149.33 46.0254H1134.35ZM1221.11 29.9277V11.8496H1234.44V45.9746H1219.46L1201.13 25.1289V45.9746H1187.82V11.8496H1206.13L1221.11 29.9277ZM1262.37 33.0762V27.2363H1285.55V46.8125H1278.9L1278.24 41.5059C1274.28 45.416 1268.26 46.8125 1262.47 46.8125C1249.62 46.7617 1239.11 43.0547 1239.16 30.1562V27.668C1239.11 14.7441 1249.62 11.0371 1262.47 11.0117C1274.3 11.0117 1284.05 14.2363 1285.55 24.748H1271.41C1270.57 23.6055 1269.35 22.8438 1267.78 22.4375C1266.21 22.0312 1264.43 21.8281 1262.47 21.8281C1257.01 21.9043 1252.39 22.9199 1252.47 28.4805V29.3184C1252.39 34.9297 1257.01 35.8945 1262.47 35.9707C1267.73 35.9707 1271.08 35.666 1273.09 33.0762H1262.37ZM1313.05 11.0117C1325.9 11.0117 1336.33 14.7695 1336.33 27.668V30.1562C1336.38 43.0547 1325.87 46.7871 1313.05 46.8125C1300.2 46.7871 1289.69 43.0547 1289.74 30.1562V27.668C1289.69 14.7441 1300.2 11.0371 1313.05 11.0117ZM1323.03 29.3184V28.4805C1323.11 22.9199 1318.48 21.9043 1313.05 21.8281C1307.59 21.9043 1302.97 22.9199 1303.05 28.4805V29.3184C1302.97 34.9043 1307.59 35.9199 1313.05 35.9961C1318.48 35.9199 1323.11 34.9043 1323.03 29.3184ZM1373.61 29.9277V11.8496H1386.94V45.9746H1371.96L1353.62 25.1289V45.9746H1340.32V11.8496H1358.63L1373.61 29.9277ZM1414.97 11.0117C1427.82 11.0117 1438.25 14.7695 1438.25 27.668V30.1562C1438.3 43.0547 1427.79 46.7871 1414.97 46.8125C1402.12 46.7871 1391.61 43.0547 1391.66 30.1562V27.668C1391.61 14.7441 1402.12 11.0371 1414.97 11.0117ZM1424.95 29.3184V28.4805C1425.02 22.9199 1420.4 21.9043 1414.97 21.8281C1409.51 21.9043 1404.89 22.9199 1404.96 28.4805V29.3184C1404.89 34.9043 1409.51 35.9199 1414.97 35.9961C1420.4 35.9199 1425.02 34.9043 1424.95 29.3184ZM0.507812 71.8496H13.8125V95.1582H40.4473V105.975H0.507812V71.8496ZM53.4605 69.496C53.1485 70.744 52.7498 72.2347 52.2645 73.968C51.7791 75.7013 51.2591 77.452 50.7045 79.22C50.1498 80.9533 49.5778 82.4613 48.9885 83.744H41.9165C42.1591 82.5653 42.4018 81.3347 42.6445 80.052C42.8871 78.7347 43.1125 77.4347 43.3205 76.152C43.5631 74.8347 43.7711 73.5693 43.9445 72.356C44.1525 71.108 44.3085 69.964 44.4125 68.924H53.0965L53.4605 69.496ZM54.4883 106.025V71.9004H94.4277V80.6348H67.793V85.002H94.4277V92.8984H67.793V97.2656H94.4277V106.025H54.4883ZM111.998 83.0977C111.998 84.5957 116.137 84.7988 121.494 85.0527C131.016 85.5352 144.396 86.1953 144.371 94.752C144.371 104.502 133.199 106.812 121.215 106.812C109.256 106.787 99.3281 105.34 98.0586 94.752H111.998C113.521 97.3926 117.051 98.0781 121.215 98.0781C125.354 98.0781 130.432 97.3926 130.432 94.752C130.432 93.2539 126.293 93.0254 120.936 92.7715C111.414 92.2891 98.0332 91.6289 98.0586 83.0977C98.0586 73.3477 109.23 71.0117 121.215 71.0117C133.174 71.0879 143.102 72.4336 144.371 83.0977H130.432C128.908 80.4062 125.379 79.7715 121.215 79.7715C117.076 79.7715 111.998 80.3809 111.998 83.0977ZM161.23 87.6934H177.48C178.268 87.6934 178.953 87.4141 179.512 86.8555C180.096 86.2715 180.375 85.5859 180.375 84.7988C180.375 83.9863 180.096 83.3008 179.512 82.7422C178.953 82.1582 178.268 81.8789 177.48 81.8789H161.23V87.6934ZM147.926 71.9004H180.807C187.84 71.8242 193.807 77.7402 193.705 84.7988C193.807 91.832 187.84 97.7988 180.807 97.6973H161.23V106.025H147.926V71.9004ZM197.336 106.025V71.9004H237.275V80.6348H210.641V85.002H237.275V92.8984H210.641V97.2656H237.275V106.025H197.336ZM244.359 71.875H277.24C284.273 71.7988 290.24 77.7148 290.139 84.7734C290.139 87.3379 289.453 89.6738 288.082 91.7559C286.736 93.8125 284.934 95.3867 282.699 96.4277L290.139 106H275.971L269.547 97.6719H257.664V106H244.359V71.875ZM273.889 81.8535H257.664V87.668H273.889C274.701 87.668 275.387 87.3887 275.945 86.8301C276.529 86.2461 276.809 85.5605 276.809 84.7734C276.809 83.1484 275.514 81.8535 273.889 81.8535ZM294.277 71.8496H307.582V105.975H294.277V71.8496ZM314.641 106.025V71.9004H354.58V80.6348H327.945V85.002H354.58V92.8984H327.945V97.2656H354.58V106.025H314.641ZM394.951 89.9277V71.8496H408.281V105.975H393.301L374.969 85.1289V105.975H361.664V71.8496H379.971L394.951 89.9277ZM437.049 82.7168H414.578V71.9004H458.682V82.7168L435.398 95.1836H458.682V106.025H414.578V95.1836L437.049 82.7168ZM485.951 81.7773L481.254 91.8574H490.623L485.951 81.7773ZM459.723 106.025L478.029 71.9004H493.848L512.154 106.025H497.174L494.482 100.186H477.395L474.703 106.025H459.723ZM520.686 115.979H515.684L519.01 106H513.195V95.9961H526.5V106L520.686 115.979ZM552.906 71.8496H566.211V95.1582H592.846V105.975H552.906V71.8496ZM620.115 81.7773L615.418 91.8574H624.787L620.115 81.7773ZM593.887 106.025L612.193 71.9004H628.012L646.318 106.025H631.338L628.646 100.186H611.559L608.867 106.025H593.887ZM686.055 87.6934H702.305C703.092 87.6934 703.777 87.4141 704.336 86.8555C704.92 86.2715 705.199 85.5859 705.199 84.7988C705.199 83.9863 704.92 83.3008 704.336 82.7422C703.777 82.1582 703.092 81.8789 702.305 81.8789H686.055V87.6934ZM672.75 71.9004H705.631C712.664 71.8242 718.631 77.7402 718.529 84.7988C718.631 91.832 712.664 97.7988 705.631 97.6973H686.055V106.025H672.75V71.9004ZM722.16 71.875H755.041C762.074 71.7988 768.041 77.7148 767.939 84.7734C767.939 87.3379 767.254 89.6738 765.883 91.7559C764.537 93.8125 762.734 95.3867 760.5 96.4277L767.939 106H753.771L747.348 97.6719H735.465V106H722.16V71.875ZM751.689 81.8535H735.465V87.668H751.689C752.502 87.668 753.188 87.3887 753.746 86.8301C754.33 86.2461 754.609 85.5605 754.609 84.7734C754.609 83.1484 753.314 81.8535 751.689 81.8535ZM772.078 106.025V71.9004H812.018V80.6348H785.383V85.002H812.018V92.8984H785.383V97.2656H812.018V106.025H772.078ZM829.588 83.0977C829.588 84.5957 833.727 84.7988 839.084 85.0527C848.605 85.5352 861.986 86.1953 861.961 94.752C861.961 104.502 850.789 106.812 838.805 106.812C826.846 106.787 816.918 105.34 815.648 94.752H829.588C831.111 97.3926 834.641 98.0781 838.805 98.0781C842.943 98.0781 848.021 97.3926 848.021 94.752C848.021 93.2539 843.883 93.0254 838.525 92.7715C829.004 92.2891 815.623 91.6289 815.648 83.0977C815.648 73.3477 826.82 71.0117 838.805 71.0117C850.764 71.0879 860.691 72.4336 861.961 83.0977H848.021C846.498 80.4062 842.969 79.7715 838.805 79.7715C834.666 79.7715 829.588 80.3809 829.588 83.0977ZM865.516 106.025V71.9004H905.455V80.6348H878.82V85.002H905.455V92.8984H878.82V97.2656H905.455V106.025H865.516ZM945.826 89.9277V71.8496H959.156V105.975H944.176L925.844 85.1289V105.975H912.539V71.8496H930.846L945.826 89.9277ZM987.924 82.7168H965.453V71.9004H1009.56V82.7168L986.273 95.1836H1009.56V106.025H965.453V95.1836L987.924 82.7168ZM1036.83 81.7773L1032.13 91.8574H1041.5L1036.83 81.7773ZM1010.6 106.025L1028.9 71.9004H1044.72L1063.03 106.025H1048.05L1045.36 100.186H1028.27L1025.58 106.025H1010.6ZM0.507812 166.025V131.9H40.4473V140.635H13.8125V145.002H40.4473V152.898H13.8125V157.266H40.4473V166.025H0.507812ZM66.8789 131.85H80.1836V155.158H106.818V165.975H66.8789V131.85ZM134.088 141.777L129.391 151.857H138.76L134.088 141.777ZM107.859 166.025L126.166 131.9H141.984L160.291 166.025H145.311L142.619 160.186H125.531L122.84 166.025H107.859ZM200.662 143.098C200.662 144.596 204.801 144.799 210.158 145.053C219.68 145.535 233.061 146.195 233.035 154.752C233.035 164.502 221.863 166.812 209.879 166.812C197.92 166.787 187.992 165.34 186.723 154.752H200.662C202.186 157.393 205.715 158.078 209.879 158.078C214.018 158.078 219.096 157.393 219.096 154.752C219.096 153.254 214.957 153.025 209.6 152.771C200.078 152.289 186.697 151.629 186.723 143.098C186.723 133.348 197.895 131.012 209.879 131.012C221.838 131.088 231.766 132.434 233.035 143.098H219.096C217.572 140.406 214.043 139.771 209.879 139.771C205.74 139.771 200.662 140.381 200.662 143.098ZM236.59 166.025V131.9H276.529V140.635H249.895V145.002H276.529V152.898H249.895V157.266H276.529V166.025H236.59ZM316.9 149.928V131.85H330.23V165.975H315.25L296.918 145.129V165.975H283.613V131.85H301.92L316.9 149.928ZM348.689 143.098C348.689 144.596 352.828 144.799 358.186 145.053C367.707 145.535 381.088 146.195 381.062 154.752C381.062 164.502 369.891 166.812 357.906 166.812C345.947 166.787 336.02 165.34 334.75 154.752H348.689C350.213 157.393 353.742 158.078 357.906 158.078C362.045 158.078 367.123 157.393 367.123 154.752C367.123 153.254 362.984 153.025 357.627 152.771C348.105 152.289 334.725 151.629 334.75 143.098C334.75 133.348 345.922 131.012 357.906 131.012C369.865 131.088 379.793 132.434 381.062 143.098H367.123C365.6 140.406 362.07 139.771 357.906 139.771C353.768 139.771 348.689 140.381 348.689 143.098ZM384.617 131.85H397.922V165.975H384.617V131.85ZM418.285 157.9H436.186C437.328 157.9 438.268 156.758 438.268 155.615C438.268 154.473 437.328 153.33 436.186 153.33H418.285V157.9ZM433.697 140H418.285V144.596H433.697C434.84 144.596 435.779 143.428 435.779 142.285C435.779 141.143 434.84 140 433.697 140ZM444.311 148.379C448.17 149.623 450.76 152.568 450.76 156.859C450.836 162.826 445.809 166.025 439.943 166.025H404.98V131.9H437.43C443.346 131.875 448.348 135.1 448.271 141.041C448.271 144.316 446.748 146.83 444.311 148.379ZM454.34 131.85H467.645V165.975H454.34V131.85ZM474.703 131.85H488.008V155.158H514.643V165.975H474.703V131.85ZM519.188 131.85H532.492V165.975H519.188V131.85ZM565.779 166.025H552.475V142.717H536.656V131.9H581.598V142.717H565.779V166.025ZM598.99 141.777L594.293 151.857H603.662L598.99 141.777ZM572.762 166.025L591.068 131.9H606.887L625.193 166.025H610.213L607.521 160.186H590.434L587.742 166.025H572.762ZM684.912 149.344V131.85H698.242V150.182C698.293 163.08 687.73 166.787 674.934 166.812C662.137 166.787 651.574 163.08 651.625 150.182V131.85H664.93V149.344C664.879 154.955 669.475 155.92 674.934 155.996C680.367 155.92 684.988 154.955 684.912 149.344ZM704.234 165.975V131.85H720.891L734.195 148.912L747.525 131.85H764.156V165.975H750.852V147.77L737.521 165.975H730.869L717.539 147.77V165.975H704.234ZM791.4 141.777L786.703 151.857H796.072L791.4 141.777ZM765.172 166.025L783.479 131.9H799.297L817.604 166.025H802.623L799.932 160.186H782.844L780.152 166.025H765.172ZM851.932 149.928V131.85H865.262V165.975H850.281L831.949 145.129V165.975H818.645V131.85H836.951L851.932 149.928ZM892.506 141.777L887.809 151.857H897.178L892.506 141.777ZM866.277 166.025L884.584 131.9H900.402L918.709 166.025H903.729L901.037 160.186H883.949L881.258 166.025H866.277ZM919.75 156.021H933.055V166H919.75V156.021Z" fill="#273B42"/>
<path d="M594.133 128L586 116H598.795L604 128H594.133Z" fill="#273B42"/>
</svg>
