<svg width="91" height="18" viewBox="0 0 91 18" fill="none" xmlns="http://www.w3.org/2000/svg">
<g filter="url(#filter0_f_476_2422)">
<path d="M12.7196 9.07243V3.89697H16.6632V9.32031C16.6782 13.1362 13.5534 14.2329 9.7676 14.2404C5.98178 14.2329 2.85698 13.1362 2.872 9.32031V3.89697H6.80805V9.07243C6.79303 10.7325 8.15262 11.0179 9.7676 11.0405C11.3751 11.0179 12.7422 10.7325 12.7196 9.07243ZM28.2836 9.24519V3.89697H32.2271V13.9925H27.7953L22.372 7.82551V13.9925H18.4359V3.89697H23.8517L28.2836 9.24519Z" fill="#273B42"/>
</g>
<path d="M38.2672 7.22459C38.2672 7.66777 39.4916 7.72786 41.0765 7.80297C43.8933 7.94569 47.8519 8.14099 47.8444 10.6724C47.8444 13.5568 44.5393 14.2404 40.9939 14.2404C37.4559 14.2329 34.5189 13.8047 34.1433 10.6724H38.2672C38.7179 11.4536 39.762 11.6564 40.9939 11.6564C42.2183 11.6564 43.7206 11.4536 43.7206 10.6724C43.7206 10.2292 42.4962 10.1616 40.9112 10.0865C38.0944 9.94376 34.1358 9.74846 34.1433 7.22459C34.1433 4.34015 37.4484 3.64909 40.9939 3.64909C44.5318 3.67162 47.4688 4.06974 47.8444 7.22459H43.7206C43.2699 6.42836 42.2258 6.24057 40.9939 6.24057C39.7695 6.24057 38.2672 6.42085 38.2672 7.22459ZM48.896 14.0075V3.91199H60.7117V6.49597H52.8321V7.78795H60.7117V10.124H52.8321V11.416H60.7117V14.0075H48.896ZM62.8074 14.0075V3.91199H74.6231V6.49597H66.7434V7.78795H74.6231V10.124H66.7434V11.416H74.6231V14.0075H62.8074ZM86.5664 9.24519V3.89697H90.51V13.9925H86.0782L80.6548 7.82551V13.9925H76.7188V3.89697H82.1346L86.5664 9.24519Z" fill="#273B42"/>
<defs>
<filter id="filter0_f_476_2422" x="-2.95639e-05" y="1.04001" width="35.0842" height="16.0573" filterUnits="userSpaceOnUse" color-interpolation-filters="sRGB">
<feFlood flood-opacity="0" result="BackgroundImageFix"/>
<feBlend mode="normal" in="SourceGraphic" in2="BackgroundImageFix" result="shape"/>
<feGaussianBlur stdDeviation="1.42848" result="effect1_foregroundBlur_476_2422"/>
</filter>
</defs>
</svg>
