<svg width="349" height="68" viewBox="0 0 349 68" fill="none" xmlns="http://www.w3.org/2000/svg">
<path d="M148.225 27.1541C148.225 28.8447 152.896 29.074 158.942 29.3605C169.687 29.9049 184.788 30.6499 184.759 40.3063C184.759 51.3094 172.151 53.9169 158.626 53.9169C145.13 53.8883 133.927 52.255 132.494 40.3063H148.225C149.944 43.2863 153.927 44.06 158.626 44.06C163.297 44.06 169.028 43.2863 169.028 40.3063C169.028 38.6157 164.357 38.3578 158.311 38.0713C147.566 37.5269 132.465 36.7819 132.494 27.1541C132.494 16.151 145.102 13.5149 158.626 13.5149C172.122 13.6008 183.326 15.1195 184.759 27.1541H169.028C167.309 24.1168 163.326 23.4005 158.626 23.4005C153.956 23.4005 148.225 24.0882 148.225 27.1541ZM188.77 53.0287V14.5178H233.843V24.3747H203.785V29.3032H233.843V38.2146H203.785V43.143H233.843V53.0287H188.77ZM241.838 53.0287V14.5178H286.91V24.3747H256.852V29.3032H286.91V38.2146H256.852V43.143H286.91V53.0287H241.838ZM332.47 34.8621V14.4604H347.513V52.9713H330.607L309.919 29.4465V52.9713H294.905V14.4604H315.564L332.47 34.8621Z" fill="white"/>
<g filter="url(#filter0_f_352_8571)">
<path d="M48.5211 34.203V14.4604H63.5644V35.1486C63.6217 49.7048 51.7017 53.8883 37.2601 53.9169C22.8185 53.8883 10.8984 49.7048 10.9557 35.1486V14.4604H25.9704V34.203C25.9131 40.5355 31.0995 41.6244 37.2601 41.7103C43.392 41.6244 48.607 40.5355 48.5211 34.203ZM107.892 34.8621V14.4604H122.935V52.9713H106.03L85.3414 29.4465V52.9713H70.3267V14.4604H90.9862L107.892 34.8621Z" fill="white"/>
</g>
<defs>
<filter id="filter0_f_352_8571" x="0.000113487" y="3.56213" width="133.834" height="61.2531" filterUnits="userSpaceOnUse" color-interpolation-filters="sRGB">
<feFlood flood-opacity="0" result="BackgroundImageFix"/>
<feBlend mode="normal" in="SourceGraphic" in2="BackgroundImageFix" result="shape"/>
<feGaussianBlur stdDeviation="5.44916" result="effect1_foregroundBlur_352_8571"/>
</filter>
</defs>
</svg>
