<svg width="1920" height="264" viewBox="0 0 1920 264" fill="none" xmlns="http://www.w3.org/2000/svg">
<path d="M680.173 45.1306V18.2822H699.97V68.9623H677.722L650.496 38.0037V68.9623H630.737V18.2822H657.925L680.173 45.1306ZM741.6 17.0378C760.68 17.0378 776.178 22.6186 776.178 41.7745V45.4699C776.254 64.6258 760.643 70.169 741.6 70.2067C722.519 70.169 706.908 64.6258 706.983 45.4699V41.7745C706.908 22.5809 722.519 17.0755 741.6 17.0378ZM756.419 44.2256V42.9812C756.532 34.723 749.669 33.2147 741.6 33.1016C733.492 33.2147 726.63 34.723 726.743 42.9812V44.2256C726.63 52.5214 733.492 54.0298 741.6 54.1429C749.669 54.0298 756.532 52.5214 756.419 44.2256ZM831.534 45.1306V18.2822H851.331V68.9623H829.083L801.858 38.0037V68.9623H782.099V18.2822H809.286L831.534 45.1306ZM933.8 69.0377H914.04V34.4214H890.548V18.3576H957.292V34.4214H933.8V69.0377ZM1013.44 44.2633V18.2822H1033.24V45.5076C1033.31 64.6635 1017.63 70.169 998.621 70.2067C979.615 70.169 963.929 64.6635 964.004 45.5076V18.2822H983.763V44.2633C983.688 52.5968 990.513 54.0298 998.621 54.1429C1006.69 54.0298 1013.55 52.5968 1013.44 44.2633ZM1083.05 69.0377H1063.29V34.4214H1039.8V18.3576H1106.54V34.4214H1083.05V69.0377ZM1156.88 69.0377H1137.12V34.4214H1113.63V18.3576H1180.38V34.4214H1156.88V69.0377ZM1216.5 17.0378C1235.58 17.0378 1251.08 22.6186 1251.08 41.7745V45.4699C1251.15 64.6258 1235.54 70.169 1216.5 70.2067C1197.42 70.169 1181.81 64.6258 1181.88 45.4699V41.7745C1181.81 22.5809 1197.42 17.0755 1216.5 17.0378ZM1231.32 44.2256V42.9812C1231.43 34.723 1224.57 33.2147 1216.5 33.1016C1208.39 33.2147 1201.53 34.723 1201.64 42.9812V44.2256C1201.53 52.5214 1208.39 54.0298 1216.5 54.1429C1224.57 54.0298 1231.43 52.5214 1231.32 44.2256ZM579.68 136.959H599.929C598.685 154.078 583.677 159.207 565.426 159.207C546.421 159.169 530.734 153.664 530.81 134.47V130.775C530.734 111.619 546.421 106.113 565.426 106.038C583.677 106.075 598.685 111.204 599.929 128.286H579.68C577.832 123.308 572.213 122.139 565.426 122.139C557.356 122.252 550.493 123.685 550.607 132.019V133.263C550.493 141.521 557.356 143.03 565.426 143.143C572.213 143.143 577.87 141.936 579.68 136.959ZM605.849 107.282H625.609V157.962H605.849V107.282ZM666.032 106.038C685.112 106.038 700.611 111.619 700.611 130.775V134.47C700.686 153.626 685.075 159.169 666.032 159.207C646.952 159.169 631.34 153.626 631.416 134.47V130.775C631.34 111.581 646.952 106.075 666.032 106.038ZM680.851 133.226V131.981C680.965 123.723 674.102 122.215 666.032 122.102C657.925 122.215 651.062 123.723 651.175 131.981V133.226C651.062 141.521 657.925 143.03 666.032 143.143C674.102 143.03 680.965 141.521 680.851 133.226ZM788.735 136.959H808.985C807.74 154.078 792.732 159.207 774.481 159.207C755.476 159.169 739.79 153.664 739.865 134.47V130.775C739.79 111.619 755.476 106.113 774.481 106.038C792.732 106.075 807.74 111.204 808.985 128.286H788.735C786.888 123.308 781.269 122.139 774.481 122.139C766.412 122.252 759.549 123.685 759.662 132.019V133.263C759.549 141.521 766.412 143.03 774.481 143.143C781.269 143.143 786.925 141.936 788.735 136.959ZM864.341 140.654H834.664V157.962H814.905V107.282H834.664V124.59H864.341V107.282H884.138V157.962H864.341V140.654ZM895.676 158.038V107.358H954.992V120.329H915.436V126.815H954.992V138.542H915.436V145.028H954.992V158.038H895.676ZM1043.12 136.959H1063.37C1062.12 154.078 1047.11 159.207 1028.86 159.207C1009.86 159.169 994.171 153.664 994.246 134.47V130.775C994.171 111.619 1009.86 106.113 1028.86 106.038C1047.11 106.075 1062.12 111.204 1063.37 128.286H1043.12C1041.27 123.308 1035.65 122.139 1028.86 122.139C1020.79 122.252 1013.93 123.685 1014.04 132.019V133.263C1013.93 141.521 1020.79 143.03 1028.86 143.143C1035.65 143.143 1041.31 141.936 1043.12 136.959ZM1102.92 106.038C1122 106.038 1137.5 111.619 1137.5 130.775V134.47C1137.58 153.626 1121.96 159.169 1102.92 159.207C1083.84 159.169 1068.23 153.626 1068.31 134.47V130.775C1068.23 111.581 1083.84 106.075 1102.92 106.038ZM1117.74 133.226V131.981C1117.85 123.723 1110.99 122.215 1102.92 122.102C1094.81 122.215 1087.95 123.723 1088.06 131.981V133.226C1087.95 141.521 1094.81 143.03 1102.92 143.143C1110.99 143.03 1117.85 141.521 1117.74 133.226ZM1192.86 134.131V107.282H1212.65V157.962H1190.41L1163.18 127.004V157.962H1143.42V107.282H1170.61L1192.86 134.131ZM1262.77 158.038H1243.01V123.421H1219.52V107.358H1286.26V123.421H1262.77V158.038ZM1312.09 122.026L1305.11 136.996H1319.03L1312.09 122.026ZM1273.14 158.038L1300.33 107.358H1323.82L1351.01 158.038H1328.76L1324.76 149.365H1299.38L1295.39 158.038H1273.14ZM692.843 247.038V196.358H752.158V209.329H712.602V215.815H752.158V227.542H712.602V234.028H752.158V247.038H692.843ZM813.661 196.358L829.121 231.54L844.582 196.358H866.829L840.848 247.038H817.356L791.413 196.358H813.661ZM868.338 196.282H888.097V246.962H868.338V196.282ZM914.154 212.987C914.154 215.212 920.3 215.513 928.257 215.891C942.397 216.607 962.27 217.587 962.232 230.295C962.232 244.775 945.64 248.207 927.842 248.207C910.081 248.169 895.337 246.02 893.452 230.295H914.154C916.416 234.217 921.658 235.235 927.842 235.235C933.988 235.235 941.53 234.217 941.53 230.295C941.53 228.07 935.383 227.731 927.427 227.354C913.286 226.637 893.414 225.657 893.452 212.987C893.452 198.507 910.043 195.038 927.842 195.038C945.602 195.151 960.346 197.149 962.232 212.987H941.53C939.267 208.99 934.026 208.047 927.842 208.047C921.695 208.047 914.154 208.952 914.154 212.987ZM967.511 196.282H987.27V246.962H967.511V196.282ZM1017.51 234.971H1044.1C1045.79 234.971 1047.19 233.274 1047.19 231.577C1047.19 229.88 1045.79 228.183 1044.1 228.183H1017.51V234.971ZM1040.4 208.387H1017.51V215.212H1040.4C1042.1 215.212 1043.49 213.477 1043.49 211.78C1043.49 210.083 1042.1 208.387 1040.4 208.387ZM1056.16 220.83C1061.9 222.678 1065.74 227.052 1065.74 233.425C1065.85 242.286 1058.39 247.038 1049.68 247.038H997.753V196.358H1045.94C1054.73 196.32 1062.16 201.109 1062.05 209.933C1062.05 214.797 1059.78 218.53 1056.16 220.83ZM1071.06 196.282H1090.82V246.962H1071.06V196.282ZM1101.3 196.282H1121.06V230.898H1160.62V246.962H1101.3V196.282ZM1167.37 247.038V196.358H1226.68V209.329H1187.12V215.815H1226.68V227.542H1187.12V234.028H1226.68V247.038H1167.37Z" fill="white"/>
<path d="M664.429 85.271C665.508 86.5983 666.777 88.0765 668.237 89.7055C669.76 91.3345 671.283 92.9334 672.806 94.502C674.33 96.0104 675.599 97.3377 676.614 98.484V99.751H664.524C663.255 98.9667 661.7 98.0014 659.859 96.855C658.082 95.6484 656.21 94.4115 654.242 93.1445C652.338 91.8172 650.498 90.5502 648.721 89.3435C647.007 88.0765 645.579 87.0207 644.437 86.176V85.271H664.429Z" fill="white"/>
<path d="M720.74 173.76C721.819 175.087 723.088 176.565 724.548 178.194C726.071 179.823 727.595 181.422 729.118 182.991C730.641 184.499 731.91 185.826 732.926 186.973V188.24H720.835C719.566 187.455 718.011 186.49 716.171 185.344C714.393 184.137 712.521 182.9 710.554 181.633C708.65 180.306 706.809 179.039 705.032 177.832C703.318 176.565 701.89 175.509 700.748 174.665V173.76H720.74Z" fill="white"/>
</svg>
