<svg width="172" height="33" viewBox="0 0 172 33" fill="none" xmlns="http://www.w3.org/2000/svg">
<g filter="url(#filter0_f_477_2426)">
<path d="M23.9945 16.7048V6.94201H31.4335V17.1724C31.4618 24.3705 25.5673 26.4393 18.4259 26.4534C11.2844 26.4393 5.38991 24.3705 5.41825 17.1724V6.94201H12.8431V16.7048C12.8147 19.8363 15.3794 20.3747 18.4259 20.4172C21.4581 20.3747 24.037 19.8363 23.9945 16.7048ZM53.3537 17.0307V6.94201H60.7927V25.9858H52.4327L42.2023 14.3527V25.9858H34.7775V6.94201H44.9937L53.3537 17.0307Z" fill="white"/>
</g>
<path d="M72.2205 13.2191C72.2205 14.0551 74.5302 14.1685 77.5199 14.3102C82.8335 14.5794 90.3008 14.9478 90.2867 19.7229C90.2867 25.164 84.0521 26.4534 77.3641 26.4534C70.6902 26.4393 65.15 25.6316 64.4415 19.7229H72.2205C73.0707 21.1965 75.0403 21.5791 77.3641 21.5791C79.6737 21.5791 82.5076 21.1965 82.5076 19.7229C82.5076 18.8869 80.198 18.7594 77.2082 18.6177C71.8946 18.3485 64.4273 17.9801 64.4415 13.2191C64.4415 7.77801 70.6761 6.47442 77.3641 6.47442C84.0379 6.51693 89.5782 7.26791 90.2867 13.2191H82.5076C81.6574 11.7171 79.6879 11.3629 77.3641 11.3629C75.0544 11.3629 72.2205 11.703 72.2205 13.2191ZM92.2704 26.0142V6.97035H114.559V11.8447H99.6952V14.2818H114.559V18.6885H99.6952V21.1257H114.559V26.0142H92.2704ZM118.512 26.0142V6.97035H140.801V11.8447H125.937V14.2818H140.801V18.6885H125.937V21.1257H140.801V26.0142H118.512ZM163.33 17.0307V6.94201H170.769V25.9858H162.409L152.179 14.3527V25.9858H144.754V6.94201H154.97L163.33 17.0307Z" fill="white"/>
<defs>
<filter id="filter0_f_477_2426" x="0.00135374" y="1.55262" width="66.1809" height="30.2903" filterUnits="userSpaceOnUse" color-interpolation-filters="sRGB">
<feFlood flood-opacity="0" result="BackgroundImageFix"/>
<feBlend mode="normal" in="SourceGraphic" in2="BackgroundImageFix" result="shape"/>
<feGaussianBlur stdDeviation="2.69464" result="effect1_foregroundBlur_477_2426"/>
</filter>
</defs>
</svg>
