<svg width="356" height="337" viewBox="0 0 356 337" fill="none" xmlns="http://www.w3.org/2000/svg">
<path d="M78.1641 299.045L73.8311 307.131V312H71.124V307.131L66.6416 299.045H69.832L72.5215 304.688L75.0967 299.045H78.1641ZM81.4336 302.42V312H78.8936V302.42H81.4336ZM81.4336 298.966V301.277H78.8936V298.966H81.4336ZM84.2285 303.457C84.8906 302.613 86.0273 302.191 87.6387 302.191C88.6875 302.191 89.6191 302.399 90.4336 302.815C91.248 303.231 91.6553 304.017 91.6553 305.171V309.565C91.6553 309.87 91.6611 310.239 91.6729 310.673C91.6904 311.001 91.7402 311.224 91.8223 311.341C91.9043 311.458 92.0273 311.555 92.1914 311.631V312H89.4668C89.3906 311.807 89.3379 311.625 89.3086 311.455C89.2793 311.285 89.2559 311.092 89.2383 310.875C88.8926 311.25 88.4941 311.569 88.043 311.833C87.5039 312.144 86.8945 312.299 86.2148 312.299C85.3477 312.299 84.6299 312.053 84.0615 311.561C83.499 311.062 83.2178 310.359 83.2178 309.451C83.2178 308.273 83.6719 307.421 84.5801 306.894C85.0781 306.606 85.8105 306.401 86.7773 306.278L87.6299 306.173C88.0928 306.114 88.4238 306.041 88.623 305.953C88.9805 305.801 89.1592 305.563 89.1592 305.241C89.1592 304.849 89.0215 304.579 88.7461 304.433C88.4766 304.28 88.0781 304.204 87.5508 304.204C86.959 304.204 86.54 304.351 86.2939 304.644C86.1182 304.86 86.001 305.153 85.9424 305.522H83.5254C83.5781 304.685 83.8125 303.996 84.2285 303.457ZM86.0918 310.189C86.3262 310.383 86.6133 310.479 86.9531 310.479C87.4922 310.479 87.9873 310.321 88.4385 310.005C88.8955 309.688 89.1328 309.111 89.1504 308.273V307.342C88.9922 307.441 88.8311 307.523 88.667 307.588C88.5088 307.646 88.2891 307.702 88.0078 307.755L87.4453 307.86C86.918 307.954 86.54 308.068 86.3115 308.203C85.9248 308.432 85.7314 308.786 85.7314 309.267C85.7314 309.694 85.8516 310.002 86.0918 310.189ZM98.3965 304.274C97.5469 304.274 96.9639 304.635 96.6475 305.355C96.4834 305.736 96.4014 306.223 96.4014 306.814V312H93.9053V302.438H96.3223V303.835C96.6445 303.343 96.9492 302.988 97.2363 302.771C97.752 302.385 98.4053 302.191 99.1963 302.191C100.187 302.191 100.995 302.452 101.622 302.974C102.255 303.489 102.571 304.348 102.571 305.549V312H100.005V306.173C100.005 305.669 99.9375 305.282 99.8027 305.013C99.5566 304.521 99.0879 304.274 98.3965 304.274ZM109.4 304.274C108.551 304.274 107.968 304.635 107.651 305.355C107.487 305.736 107.405 306.223 107.405 306.814V312H104.909V302.438H107.326V303.835C107.648 303.343 107.953 302.988 108.24 302.771C108.756 302.385 109.409 302.191 110.2 302.191C111.19 302.191 111.999 302.452 112.626 302.974C113.259 303.489 113.575 304.348 113.575 305.549V312H111.009V306.173C111.009 305.669 110.941 305.282 110.807 305.013C110.561 304.521 110.092 304.274 109.4 304.274ZM118.471 302.42V312H115.931V302.42H118.471ZM118.471 298.966V301.277H115.931V298.966H118.471ZM127.506 302.859C128.256 303.34 128.687 304.166 128.798 305.338H126.293C126.258 305.016 126.167 304.761 126.021 304.573C125.745 304.233 125.276 304.063 124.614 304.063C124.069 304.063 123.68 304.148 123.445 304.318C123.217 304.488 123.103 304.688 123.103 304.916C123.103 305.203 123.226 305.411 123.472 305.54C123.718 305.675 124.588 305.906 126.082 306.234C127.078 306.469 127.825 306.823 128.323 307.298C128.815 307.778 129.062 308.379 129.062 309.1C129.062 310.049 128.707 310.825 127.998 311.429C127.295 312.026 126.205 312.325 124.729 312.325C123.223 312.325 122.109 312.009 121.389 311.376C120.674 310.737 120.316 309.926 120.316 308.941H122.856C122.909 309.387 123.023 309.703 123.199 309.891C123.51 310.225 124.084 310.392 124.922 310.392C125.414 310.392 125.804 310.318 126.091 310.172C126.384 310.025 126.53 309.806 126.53 309.513C126.53 309.231 126.413 309.018 126.179 308.871C125.944 308.725 125.074 308.473 123.568 308.115C122.484 307.846 121.72 307.509 121.274 307.104C120.829 306.706 120.606 306.132 120.606 305.382C120.606 304.497 120.952 303.738 121.644 303.105C122.341 302.467 123.319 302.147 124.579 302.147C125.774 302.147 126.75 302.385 127.506 302.859ZM145.154 306.34H138.861V309.671H146.033V312H136.216V299.045H145.717V301.339H138.861V304.09H145.154V306.34ZM156.475 312H153.354L151.702 309.126L150.041 312H147L150.27 307.148L147.141 302.438H150.208L151.808 305.215L153.372 302.438H156.352L153.205 307.104L156.475 312ZM158.32 303.457C158.982 302.613 160.119 302.191 161.73 302.191C162.779 302.191 163.711 302.399 164.525 302.815C165.34 303.231 165.747 304.017 165.747 305.171V309.565C165.747 309.87 165.753 310.239 165.765 310.673C165.782 311.001 165.832 311.224 165.914 311.341C165.996 311.458 166.119 311.555 166.283 311.631V312H163.559C163.482 311.807 163.43 311.625 163.4 311.455C163.371 311.285 163.348 311.092 163.33 310.875C162.984 311.25 162.586 311.569 162.135 311.833C161.596 312.144 160.986 312.299 160.307 312.299C159.439 312.299 158.722 312.053 158.153 311.561C157.591 311.062 157.31 310.359 157.31 309.451C157.31 308.273 157.764 307.421 158.672 306.894C159.17 306.606 159.902 306.401 160.869 306.278L161.722 306.173C162.185 306.114 162.516 306.041 162.715 305.953C163.072 305.801 163.251 305.563 163.251 305.241C163.251 304.849 163.113 304.579 162.838 304.433C162.568 304.28 162.17 304.204 161.643 304.204C161.051 304.204 160.632 304.351 160.386 304.644C160.21 304.86 160.093 305.153 160.034 305.522H157.617C157.67 304.685 157.904 303.996 158.32 303.457ZM160.184 310.189C160.418 310.383 160.705 310.479 161.045 310.479C161.584 310.479 162.079 310.321 162.53 310.005C162.987 309.688 163.225 309.111 163.242 308.273V307.342C163.084 307.441 162.923 307.523 162.759 307.588C162.601 307.646 162.381 307.702 162.1 307.755L161.537 307.86C161.01 307.954 160.632 308.068 160.403 308.203C160.017 308.432 159.823 308.786 159.823 309.267C159.823 309.694 159.943 310.002 160.184 310.189ZM172.796 304.731C171.788 304.731 171.111 305.06 170.766 305.716C170.572 306.085 170.476 306.653 170.476 307.421V312H167.953V302.42H170.344V304.09C170.73 303.451 171.067 303.015 171.354 302.78C171.823 302.388 172.433 302.191 173.183 302.191C173.229 302.191 173.268 302.194 173.297 302.2C173.332 302.2 173.405 302.203 173.517 302.209V304.775C173.358 304.758 173.218 304.746 173.095 304.74C172.972 304.734 172.872 304.731 172.796 304.731ZM183.281 305.856H180.715C180.668 305.499 180.548 305.177 180.354 304.89C180.073 304.503 179.637 304.31 179.045 304.31C178.201 304.31 177.624 304.729 177.313 305.566C177.149 306.012 177.067 306.604 177.067 307.342C177.067 308.045 177.149 308.61 177.313 309.038C177.612 309.835 178.175 310.233 179.001 310.233C179.587 310.233 180.003 310.075 180.249 309.759C180.495 309.442 180.645 309.032 180.697 308.528H183.255C183.196 309.29 182.921 310.011 182.429 310.69C181.644 311.786 180.48 312.334 178.939 312.334C177.398 312.334 176.265 311.877 175.538 310.963C174.812 310.049 174.448 308.862 174.448 307.403C174.448 305.757 174.85 304.477 175.652 303.562C176.455 302.648 177.562 302.191 178.975 302.191C180.176 302.191 181.157 302.461 181.919 303C182.687 303.539 183.141 304.491 183.281 305.856ZM193.67 306.375V312H191.112V306.173C191.112 305.657 191.024 305.241 190.849 304.925C190.62 304.479 190.187 304.257 189.548 304.257C188.886 304.257 188.382 304.479 188.036 304.925C187.696 305.364 187.526 305.994 187.526 306.814V312H185.03V299.089H187.526V303.668C187.89 303.111 188.309 302.725 188.783 302.508C189.264 302.285 189.768 302.174 190.295 302.174C190.887 302.174 191.423 302.276 191.903 302.481C192.39 302.687 192.788 303 193.099 303.422C193.362 303.779 193.523 304.148 193.582 304.529C193.641 304.904 193.67 305.52 193.67 306.375ZM204.006 303.633C204.814 304.646 205.219 305.845 205.219 307.228C205.219 308.634 204.814 309.838 204.006 310.84C203.197 311.836 201.97 312.334 200.323 312.334C198.677 312.334 197.449 311.836 196.641 310.84C195.832 309.838 195.428 308.634 195.428 307.228C195.428 305.845 195.832 304.646 196.641 303.633C197.449 302.619 198.677 302.112 200.323 302.112C201.97 302.112 203.197 302.619 204.006 303.633ZM200.314 304.23C199.582 304.23 199.017 304.491 198.618 305.013C198.226 305.528 198.029 306.267 198.029 307.228C198.029 308.188 198.226 308.93 198.618 309.451C199.017 309.973 199.582 310.233 200.314 310.233C201.047 310.233 201.609 309.973 202.002 309.451C202.395 308.93 202.591 308.188 202.591 307.228C202.591 306.267 202.395 305.528 202.002 305.013C201.609 304.491 201.047 304.23 200.314 304.23ZM213.621 302.859C214.371 303.34 214.802 304.166 214.913 305.338H212.408C212.373 305.016 212.282 304.761 212.136 304.573C211.86 304.233 211.392 304.063 210.729 304.063C210.185 304.063 209.795 304.148 209.561 304.318C209.332 304.488 209.218 304.688 209.218 304.916C209.218 305.203 209.341 305.411 209.587 305.54C209.833 305.675 210.703 305.906 212.197 306.234C213.193 306.469 213.94 306.823 214.438 307.298C214.931 307.778 215.177 308.379 215.177 309.1C215.177 310.049 214.822 310.825 214.113 311.429C213.41 312.026 212.32 312.325 210.844 312.325C209.338 312.325 208.225 312.009 207.504 311.376C206.789 310.737 206.432 309.926 206.432 308.941H208.972C209.024 309.387 209.139 309.703 209.314 309.891C209.625 310.225 210.199 310.392 211.037 310.392C211.529 310.392 211.919 310.318 212.206 310.172C212.499 310.025 212.646 309.806 212.646 309.513C212.646 309.231 212.528 309.018 212.294 308.871C212.06 308.725 211.189 308.473 209.684 308.115C208.6 307.846 207.835 307.509 207.39 307.104C206.944 306.706 206.722 306.132 206.722 305.382C206.722 304.497 207.067 303.738 207.759 303.105C208.456 302.467 209.435 302.147 210.694 302.147C211.89 302.147 212.865 302.385 213.621 302.859ZM219.457 312.896C219.352 313.33 219.155 313.705 218.868 314.021C218.558 314.361 218.191 314.616 217.77 314.786C217.354 314.962 217.066 315.05 216.908 315.05V314.083C217.412 313.942 217.781 313.708 218.016 313.38C218.256 313.052 218.394 312.592 218.429 312H216.908V309.381H219.615V311.648C219.615 312.047 219.562 312.463 219.457 312.896ZM239.927 302.965H238.222C238.204 302.133 237.958 301.474 237.483 300.987C237.009 300.501 236.25 300.258 235.207 300.258C233.936 300.258 232.813 300.706 231.841 301.603C230.874 302.493 230.194 303.861 229.802 305.707C229.479 307.219 229.57 308.446 230.074 309.39C230.584 310.327 231.539 310.796 232.939 310.796C234.229 310.796 235.315 310.301 236.2 309.311C236.663 308.789 237.073 308.104 237.431 307.254H239.136C238.696 308.613 237.952 309.753 236.903 310.673C235.638 311.78 234.135 312.334 232.395 312.334C230.895 312.334 229.731 311.88 228.905 310.972C227.821 309.771 227.546 307.916 228.079 305.408C228.483 303.504 229.318 301.942 230.584 300.724C231.955 299.399 233.599 298.737 235.515 298.737C237.149 298.737 238.327 299.168 239.048 300.029C239.769 300.891 240.062 301.869 239.927 302.965ZM243.179 299.089H252.592L252.249 300.671H244.541L243.715 304.591H250.843L250.526 306.085H243.398L242.467 310.462H250.307L249.981 312H240.437L243.179 299.089ZM265.257 300.935C265.872 302.077 265.989 303.539 265.608 305.32C265.198 307.248 264.369 308.851 263.121 310.128C261.65 311.628 259.852 312.378 257.725 312.378C255.738 312.378 254.317 311.722 253.462 310.409C252.718 309.144 252.551 307.544 252.961 305.61C253.33 303.864 254.08 302.37 255.211 301.128C256.664 299.534 258.48 298.737 260.66 298.737C262.939 298.737 264.472 299.47 265.257 300.935ZM263.807 305.347C264.129 303.829 263.991 302.607 263.394 301.682C262.802 300.756 261.817 300.293 260.44 300.293C259.104 300.293 257.915 300.753 256.872 301.673C255.835 302.587 255.126 303.938 254.745 305.725C254.44 307.154 254.546 308.361 255.062 309.346C255.577 310.324 256.646 310.813 258.27 310.813C259.811 310.813 261.041 310.263 261.961 309.161C262.887 308.054 263.502 306.782 263.807 305.347ZM275.004 310.954C275.736 310.954 276.404 310.641 277.008 310.014C277.611 309.381 278.039 308.476 278.291 307.298C278.543 306.108 278.487 305.229 278.124 304.661C277.761 304.087 277.222 303.8 276.507 303.8C275.71 303.8 274.998 304.104 274.371 304.714C273.75 305.323 273.313 306.22 273.062 307.403C272.845 308.411 272.877 309.255 273.158 309.935C273.445 310.614 274.061 310.954 275.004 310.954ZM278.212 302.877C278.458 303.053 278.713 303.36 278.977 303.8L279.987 299.045H281.508L278.757 312H277.333L277.605 310.69C277.113 311.271 276.586 311.689 276.023 311.947C275.467 312.205 274.863 312.334 274.213 312.334C273.164 312.334 272.35 311.895 271.77 311.016C271.189 310.131 271.058 308.956 271.374 307.491C271.661 306.12 272.262 304.934 273.176 303.932C274.09 302.924 275.197 302.42 276.498 302.42C277.219 302.42 277.79 302.572 278.212 302.877ZM283.09 302.631H284.698L282.712 312H281.104L283.09 302.631ZM283.846 299.089H285.454L285.067 300.882H283.459L283.846 299.089ZM303.313 300.935C303.929 302.077 304.046 303.539 303.665 305.32C303.255 307.248 302.426 308.851 301.178 310.128C299.707 311.628 297.908 312.378 295.781 312.378C293.795 312.378 292.374 311.722 291.519 310.409C290.774 309.144 290.607 307.544 291.018 305.61C291.387 303.864 292.137 302.37 293.268 301.128C294.721 299.534 296.537 298.737 298.717 298.737C300.996 298.737 302.528 299.47 303.313 300.935ZM301.863 305.347C302.186 303.829 302.048 302.607 301.45 301.682C300.858 300.756 299.874 300.293 298.497 300.293C297.161 300.293 295.972 300.753 294.929 301.673C293.892 302.587 293.183 303.938 292.802 305.725C292.497 307.154 292.603 308.361 293.118 309.346C293.634 310.324 294.703 310.813 296.326 310.813C297.867 310.813 299.098 310.263 300.018 309.161C300.943 308.054 301.559 306.782 301.863 305.347ZM306.917 299.089H308.499L305.757 312H304.175L306.917 299.089ZM316.014 302.587H317.763C317.411 303.19 316.623 304.567 315.398 306.718C314.484 308.335 313.726 309.653 313.122 310.673C311.692 313.075 310.734 314.54 310.248 315.067C309.762 315.595 309.062 315.858 308.147 315.858C307.925 315.858 307.755 315.85 307.638 315.832C307.521 315.814 307.38 315.782 307.216 315.735L307.523 314.294C307.781 314.37 307.969 314.417 308.086 314.435C308.209 314.452 308.317 314.461 308.411 314.461C308.704 314.461 308.93 314.411 309.088 314.312C309.246 314.218 309.387 314.101 309.51 313.96C309.551 313.913 309.706 313.673 309.976 313.239C310.251 312.806 310.453 312.483 310.582 312.272L309.158 302.587H310.951L311.848 310.251L316.014 302.587ZM319.134 302.587H320.698L320.417 303.923C320.892 303.46 321.302 303.123 321.647 302.912C322.245 302.555 322.875 302.376 323.537 302.376C324.287 302.376 324.853 302.561 325.233 302.93C325.444 303.141 325.611 303.451 325.734 303.861C326.197 303.357 326.689 302.985 327.211 302.745C327.738 302.499 328.298 302.376 328.89 302.376C330.155 302.376 330.92 302.833 331.184 303.747C331.324 304.239 331.307 304.901 331.131 305.733L329.804 312H328.16L329.549 305.461C329.678 304.834 329.61 304.403 329.347 304.169C329.083 303.935 328.726 303.817 328.274 303.817C327.653 303.817 327.073 304.025 326.534 304.441C326.001 304.857 325.632 305.552 325.427 306.524L324.267 312H322.658L323.959 305.856C324.094 305.218 324.117 304.752 324.029 304.459C323.883 304.02 323.481 303.8 322.825 303.8C322.228 303.8 321.633 304.031 321.041 304.494C320.455 304.957 320.033 305.795 319.775 307.008L318.721 312H317.139L319.134 302.587ZM339.691 307.236C339.85 306.486 339.876 305.842 339.771 305.303C339.583 304.266 338.944 303.747 337.854 303.747C336.759 303.747 335.892 304.295 335.253 305.391C334.913 305.977 334.646 306.721 334.453 307.623C334.301 308.35 334.28 308.968 334.392 309.478C334.591 310.45 335.235 310.937 336.325 310.937C337.063 310.937 337.743 310.629 338.364 310.014C338.985 309.393 339.428 308.467 339.691 307.236ZM333.996 302.631H335.534L335.271 303.879C335.675 303.451 336.091 303.12 336.519 302.886C337.128 302.534 337.793 302.358 338.514 302.358C339.58 302.358 340.397 302.769 340.966 303.589C341.534 304.403 341.657 305.569 341.335 307.087C340.901 309.138 340.055 310.603 338.795 311.481C337.998 312.038 337.148 312.316 336.246 312.316C335.537 312.316 334.975 312.161 334.559 311.851C334.312 311.675 334.063 311.373 333.812 310.945L332.792 315.753H331.21L333.996 302.631ZM344.139 302.631H345.747L343.761 312H342.152L344.139 302.631ZM344.895 299.089H346.503L346.116 300.882H344.508L344.895 299.089ZM354.905 305.751H353.367C353.396 305.171 353.285 304.69 353.033 304.31C352.781 303.923 352.286 303.729 351.548 303.729C350.54 303.729 349.714 304.222 349.069 305.206C348.653 305.845 348.346 306.633 348.146 307.57C347.941 308.514 347.971 309.308 348.234 309.952C348.498 310.597 349.058 310.919 349.913 310.919C350.569 310.919 351.132 310.72 351.601 310.321C352.069 309.917 352.45 309.366 352.743 308.669H354.281C353.842 309.917 353.209 310.831 352.383 311.411C351.557 311.985 350.596 312.272 349.5 312.272C348.27 312.272 347.382 311.824 346.837 310.928C346.298 310.025 346.172 308.9 346.459 307.553C346.811 305.9 347.484 304.614 348.48 303.694C349.482 302.774 350.604 302.314 351.847 302.314C352.907 302.314 353.713 302.572 354.264 303.088C354.82 303.604 355.034 304.491 354.905 305.751ZM127.594 325.547C128.332 325.547 128.927 325.444 129.378 325.239C130.093 324.917 130.538 324.337 130.714 323.499C130.896 322.655 130.676 322.087 130.055 321.794C129.697 321.63 129.138 321.548 128.376 321.548H125.256L124.412 325.547H127.594ZM126.917 331.506C127.989 331.506 128.818 331.195 129.404 330.574C129.773 330.182 130.02 329.707 130.143 329.15C130.342 328.213 130.058 327.574 129.29 327.234C128.886 327.053 128.317 326.962 127.585 326.962H124.113L123.146 331.506H126.917ZM123.858 320.089H129.404C130.916 320.089 131.895 320.54 132.34 321.442C132.604 321.976 132.659 322.591 132.507 323.288C132.337 324.103 131.965 324.771 131.391 325.292C131.092 325.567 130.693 325.819 130.195 326.048C130.799 326.3 131.232 326.584 131.496 326.9C131.959 327.463 132.085 328.239 131.874 329.229C131.698 330.062 131.276 330.814 130.608 331.488C129.618 332.496 128.273 333 126.574 333H121.116L123.858 320.089ZM134.994 323.587H136.497L136.154 325.213C136.342 324.896 136.723 324.513 137.297 324.062C137.877 323.604 138.48 323.376 139.107 323.376C139.137 323.376 139.187 323.379 139.257 323.385C139.327 323.391 139.444 323.402 139.608 323.42L139.257 325.09C139.163 325.072 139.078 325.061 139.002 325.055C138.926 325.049 138.841 325.046 138.747 325.046C137.95 325.046 137.282 325.304 136.743 325.819C136.21 326.329 135.87 326.918 135.724 327.586L134.581 333H132.999L134.994 323.587ZM146.455 328.14C146.643 327.261 146.654 326.546 146.49 325.995C146.227 325.128 145.55 324.694 144.46 324.694C143.493 324.694 142.711 325.063 142.113 325.802C141.521 326.54 141.114 327.431 140.892 328.474C140.681 329.476 140.722 330.311 141.015 330.979C141.313 331.646 141.94 331.98 142.896 331.98C143.944 331.98 144.747 331.585 145.304 330.794C145.866 329.997 146.25 329.112 146.455 328.14ZM148.116 328.096C147.794 329.613 147.158 330.867 146.209 331.857C145.26 332.848 144.009 333.343 142.456 333.343C141.161 333.343 140.227 332.906 139.652 332.033C139.078 331.154 138.946 329.977 139.257 328.5C139.597 326.918 140.268 325.658 141.27 324.721C142.271 323.783 143.449 323.314 144.803 323.314C146.016 323.314 146.953 323.719 147.615 324.527C148.283 325.336 148.45 326.525 148.116 328.096ZM152.08 331.972C152.637 331.972 153.205 331.843 153.785 331.585C154.752 331.157 155.341 330.457 155.552 329.484L155.815 328.21C155.599 328.333 155.329 328.436 155.007 328.518C154.685 328.6 154.374 328.658 154.075 328.693L153.091 328.816C152.499 328.893 152.042 329.013 151.72 329.177C151.175 329.452 150.838 329.892 150.709 330.495C150.609 330.952 150.697 331.312 150.973 331.576C151.254 331.84 151.623 331.972 152.08 331.972ZM155.218 327.296C155.593 327.249 155.871 327.097 156.053 326.839C156.152 326.698 156.229 326.496 156.281 326.232C156.398 325.693 156.29 325.304 155.956 325.063C155.622 324.817 155.098 324.694 154.383 324.694C153.557 324.694 152.924 324.917 152.484 325.362C152.238 325.608 152.036 325.975 151.878 326.461H150.401C150.677 325.301 151.225 324.495 152.045 324.044C152.865 323.587 153.753 323.358 154.708 323.358C155.815 323.358 156.668 323.569 157.266 323.991C157.863 324.413 158.068 325.069 157.881 325.96L156.729 331.383C156.694 331.547 156.697 331.679 156.738 331.778C156.785 331.878 156.917 331.928 157.134 331.928C157.204 331.928 157.283 331.925 157.371 331.919C157.465 331.907 157.564 331.893 157.67 331.875L157.415 333.044C157.157 333.114 156.961 333.158 156.826 333.176C156.697 333.193 156.521 333.202 156.299 333.202C155.754 333.202 155.399 333.009 155.235 332.622C155.147 332.417 155.118 332.127 155.147 331.752C154.731 332.174 154.189 332.54 153.521 332.851C152.854 333.161 152.156 333.316 151.43 333.316C150.557 333.316 149.897 333.053 149.452 332.525C149.013 331.992 148.878 331.327 149.048 330.53C149.235 329.657 149.651 328.98 150.296 328.5C150.946 328.02 151.726 327.724 152.634 327.612L155.218 327.296ZM162.908 331.954C163.641 331.954 164.309 331.641 164.912 331.014C165.516 330.381 165.943 329.476 166.195 328.298C166.447 327.108 166.392 326.229 166.028 325.661C165.665 325.087 165.126 324.8 164.411 324.8C163.614 324.8 162.902 325.104 162.275 325.714C161.654 326.323 161.218 327.22 160.966 328.403C160.749 329.411 160.781 330.255 161.062 330.935C161.35 331.614 161.965 331.954 162.908 331.954ZM166.116 323.877C166.362 324.053 166.617 324.36 166.881 324.8L167.892 320.045H169.412L166.661 333H165.237L165.51 331.69C165.018 332.271 164.49 332.689 163.928 332.947C163.371 333.205 162.768 333.334 162.117 333.334C161.068 333.334 160.254 332.895 159.674 332.016C159.094 331.131 158.962 329.956 159.278 328.491C159.565 327.12 160.166 325.934 161.08 324.932C161.994 323.924 163.102 323.42 164.402 323.42C165.123 323.42 165.694 323.572 166.116 323.877ZM177.753 326.751H176.215C176.244 326.171 176.133 325.69 175.881 325.31C175.629 324.923 175.134 324.729 174.396 324.729C173.388 324.729 172.562 325.222 171.917 326.206C171.501 326.845 171.193 327.633 170.994 328.57C170.789 329.514 170.818 330.308 171.082 330.952C171.346 331.597 171.905 331.919 172.761 331.919C173.417 331.919 173.979 331.72 174.448 331.321C174.917 330.917 175.298 330.366 175.591 329.669H177.129C176.689 330.917 176.057 331.831 175.23 332.411C174.404 332.985 173.443 333.272 172.348 333.272C171.117 333.272 170.229 332.824 169.685 331.928C169.146 331.025 169.02 329.9 169.307 328.553C169.658 326.9 170.332 325.614 171.328 324.694C172.33 323.774 173.452 323.314 174.694 323.314C175.755 323.314 176.561 323.572 177.111 324.088C177.668 324.604 177.882 325.491 177.753 326.751ZM181.119 331.972C181.676 331.972 182.244 331.843 182.824 331.585C183.791 331.157 184.38 330.457 184.591 329.484L184.854 328.21C184.638 328.333 184.368 328.436 184.046 328.518C183.724 328.6 183.413 328.658 183.114 328.693L182.13 328.816C181.538 328.893 181.081 329.013 180.759 329.177C180.214 329.452 179.877 329.892 179.748 330.495C179.648 330.952 179.736 331.312 180.012 331.576C180.293 331.84 180.662 331.972 181.119 331.972ZM184.257 327.296C184.632 327.249 184.91 327.097 185.092 326.839C185.191 326.698 185.268 326.496 185.32 326.232C185.438 325.693 185.329 325.304 184.995 325.063C184.661 324.817 184.137 324.694 183.422 324.694C182.596 324.694 181.963 324.917 181.523 325.362C181.277 325.608 181.075 325.975 180.917 326.461H179.44C179.716 325.301 180.264 324.495 181.084 324.044C181.904 323.587 182.792 323.358 183.747 323.358C184.854 323.358 185.707 323.569 186.305 323.991C186.902 324.413 187.107 325.069 186.92 325.96L185.769 331.383C185.733 331.547 185.736 331.679 185.777 331.778C185.824 331.878 185.956 331.928 186.173 331.928C186.243 331.928 186.322 331.925 186.41 331.919C186.504 331.907 186.604 331.893 186.709 331.875L186.454 333.044C186.196 333.114 186 333.158 185.865 333.176C185.736 333.193 185.561 333.202 185.338 333.202C184.793 333.202 184.438 333.009 184.274 332.622C184.187 332.417 184.157 332.127 184.187 331.752C183.771 332.174 183.229 332.54 182.561 332.851C181.893 333.161 181.195 333.316 180.469 333.316C179.596 333.316 178.937 333.053 178.491 332.525C178.052 331.992 177.917 331.327 178.087 330.53C178.274 329.657 178.69 328.98 179.335 328.5C179.985 328.02 180.765 327.724 181.673 327.612L184.257 327.296ZM189.592 330.047C189.527 330.574 189.574 330.979 189.732 331.26C190.02 331.77 190.655 332.024 191.64 332.024C192.226 332.024 192.768 331.898 193.266 331.646C193.77 331.389 194.077 330.993 194.188 330.46C194.276 330.056 194.162 329.748 193.846 329.537C193.646 329.408 193.228 329.259 192.589 329.089L191.402 328.772C190.641 328.573 190.096 328.351 189.768 328.104C189.176 327.677 188.962 327.085 189.126 326.329C189.313 325.438 189.785 324.718 190.541 324.167C191.303 323.616 192.226 323.341 193.31 323.341C194.728 323.341 195.662 323.757 196.113 324.589C196.395 325.116 196.465 325.685 196.324 326.294H194.83C194.877 325.937 194.818 325.611 194.654 325.318C194.379 324.902 193.793 324.694 192.896 324.694C192.299 324.694 191.821 324.809 191.464 325.037C191.112 325.266 190.896 325.567 190.813 325.942C190.726 326.353 190.857 326.681 191.209 326.927C191.414 327.073 191.733 327.202 192.167 327.313L193.16 327.568C194.238 327.844 194.944 328.11 195.278 328.368C195.806 328.772 195.976 329.408 195.788 330.275C195.612 331.113 195.141 331.837 194.373 332.446C193.611 333.056 192.58 333.36 191.279 333.36C189.879 333.36 188.953 333.044 188.502 332.411C188.057 331.772 187.913 330.984 188.071 330.047H189.592ZM199.901 320.959H201.501L200.938 323.587H202.441L202.169 324.879H200.666L199.356 331.022C199.286 331.351 199.351 331.57 199.55 331.682C199.661 331.746 199.86 331.778 200.147 331.778C200.224 331.778 200.306 331.778 200.394 331.778C200.481 331.772 200.587 331.764 200.71 331.752L200.446 333C200.253 333.053 200.054 333.091 199.849 333.114C199.649 333.138 199.436 333.149 199.207 333.149C198.469 333.149 198.006 332.962 197.818 332.587C197.637 332.206 197.61 331.714 197.739 331.11L199.066 324.879H197.792L198.064 323.587H199.339L199.901 320.959ZM204.023 323.631H205.632L203.646 333H202.037L204.023 323.631ZM204.779 320.089H206.388L206.001 321.882H204.393L204.779 320.089ZM208.04 323.587H209.543L209.262 324.923C209.824 324.372 210.378 323.977 210.923 323.736C211.474 323.496 212.054 323.376 212.663 323.376C213.999 323.376 214.802 323.842 215.071 324.773C215.224 325.283 215.2 326.013 215.001 326.962L213.718 333H212.109L213.366 327.067C213.489 326.493 213.504 326.03 213.41 325.679C213.252 325.093 212.804 324.8 212.065 324.8C211.69 324.8 211.374 324.838 211.116 324.914C210.653 325.043 210.217 325.301 209.807 325.688C209.479 325.998 209.238 326.32 209.086 326.654C208.939 326.982 208.802 327.454 208.673 328.069L207.627 333H206.045L208.04 323.587ZM223.236 323.965C223.494 324.17 223.734 324.469 223.957 324.861L224.212 323.675H225.671L223.852 332.235C223.6 333.431 223.225 334.374 222.727 335.065C221.795 336.343 220.418 336.981 218.596 336.981C217.582 336.981 216.776 336.753 216.179 336.296C215.587 335.845 215.353 335.136 215.476 334.169H217.084C217.072 334.591 217.157 334.916 217.339 335.145C217.62 335.496 218.145 335.672 218.912 335.672C220.125 335.672 221.01 335.244 221.566 334.389C221.895 333.885 222.188 332.985 222.445 331.69C222.029 332.171 221.572 332.528 221.074 332.763C220.582 332.997 219.97 333.114 219.237 333.114C218.218 333.114 217.4 332.754 216.785 332.033C216.176 331.307 216.05 330.108 216.407 328.438C216.741 326.862 217.386 325.632 218.341 324.747C219.302 323.862 220.327 323.42 221.417 323.42C222.155 323.42 222.762 323.602 223.236 323.965ZM221.408 324.817C220.295 324.817 219.425 325.339 218.798 326.382C218.458 326.938 218.194 327.668 218.007 328.57C217.778 329.631 217.819 330.439 218.13 330.996C218.446 331.547 218.968 331.822 219.694 331.822C220.831 331.822 221.739 331.31 222.419 330.284C222.8 329.704 223.072 329.027 223.236 328.254C223.488 327.088 223.433 326.224 223.069 325.661C222.706 325.099 222.152 324.817 221.408 324.817ZM233.326 328.834C233.215 329.566 233.262 330.161 233.467 330.618C233.865 331.474 234.797 331.901 236.262 331.901C236.918 331.901 237.536 331.808 238.116 331.62C239.235 331.257 239.895 330.606 240.094 329.669C240.246 328.966 240.132 328.465 239.751 328.166C239.37 327.873 238.729 327.618 237.826 327.401L236.156 327.006C235.072 326.748 234.325 326.464 233.915 326.153C233.212 325.614 232.975 324.809 233.203 323.736C233.449 322.576 234.053 321.624 235.014 320.88C235.975 320.136 237.19 319.764 238.661 319.764C240.015 319.764 241.093 320.092 241.896 320.748C242.704 321.398 242.956 322.441 242.651 323.877H241.008C241.066 323.186 240.993 322.655 240.788 322.286C240.396 321.612 239.561 321.275 238.283 321.275C237.252 321.275 236.464 321.492 235.919 321.926C235.38 322.359 235.049 322.863 234.926 323.438C234.791 324.07 234.955 324.533 235.418 324.826C235.723 325.014 236.455 325.248 237.615 325.529L239.338 325.942C240.17 326.142 240.785 326.414 241.184 326.76C241.881 327.363 242.106 328.239 241.86 329.388C241.556 330.817 240.817 331.84 239.646 332.455C238.474 333.07 237.199 333.378 235.822 333.378C234.217 333.378 233.048 332.968 232.315 332.147C231.583 331.333 231.372 330.229 231.683 328.834H233.326ZM252.073 325.063C252.29 325.538 252.384 326.092 252.354 326.725C252.36 327.158 252.261 327.85 252.056 328.799H245.156C244.98 329.754 245.042 330.521 245.341 331.102C245.646 331.676 246.24 331.963 247.125 331.963C247.951 331.963 248.666 331.69 249.27 331.146C249.621 330.829 249.899 330.463 250.104 330.047H251.66C251.543 330.393 251.323 330.779 251.001 331.207C250.685 331.629 250.354 331.975 250.008 332.244C249.428 332.713 248.766 333.029 248.021 333.193C247.617 333.287 247.175 333.334 246.694 333.334C245.522 333.334 244.62 332.909 243.987 332.06C243.354 331.204 243.202 330.009 243.53 328.474C243.853 326.962 244.523 325.734 245.543 324.791C246.562 323.848 247.734 323.376 249.059 323.376C249.727 323.376 250.342 323.534 250.904 323.851C251.467 324.161 251.856 324.565 252.073 325.063ZM250.693 327.542C250.775 326.856 250.743 326.309 250.597 325.898C250.327 325.137 249.686 324.756 248.672 324.756C247.945 324.756 247.28 325.02 246.677 325.547C246.073 326.068 245.669 326.733 245.464 327.542H250.693ZM255.158 323.587H256.661L256.318 325.213C256.506 324.896 256.887 324.513 257.461 324.062C258.041 323.604 258.645 323.376 259.271 323.376C259.301 323.376 259.351 323.379 259.421 323.385C259.491 323.391 259.608 323.402 259.772 323.42L259.421 325.09C259.327 325.072 259.242 325.061 259.166 325.055C259.09 325.049 259.005 325.046 258.911 325.046C258.114 325.046 257.446 325.304 256.907 325.819C256.374 326.329 256.034 326.918 255.888 327.586L254.745 333H253.163L255.158 323.587ZM261.882 323.587L262.77 331.251L267.023 323.587H268.755L263.209 333H261.521L260.045 323.587H261.882ZM270.1 323.631H271.708L269.722 333H268.113L270.1 323.631ZM270.855 320.089H272.464L272.077 321.882H270.469L270.855 320.089ZM280.866 326.751H279.328C279.357 326.171 279.246 325.69 278.994 325.31C278.742 324.923 278.247 324.729 277.509 324.729C276.501 324.729 275.675 325.222 275.03 326.206C274.614 326.845 274.307 327.633 274.107 328.57C273.902 329.514 273.932 330.308 274.195 330.952C274.459 331.597 275.019 331.919 275.874 331.919C276.53 331.919 277.093 331.72 277.562 331.321C278.03 330.917 278.411 330.366 278.704 329.669H280.242C279.803 330.917 279.17 331.831 278.344 332.411C277.518 332.985 276.557 333.272 275.461 333.272C274.23 333.272 273.343 332.824 272.798 331.928C272.259 331.025 272.133 329.9 272.42 328.553C272.771 326.9 273.445 325.614 274.441 324.694C275.443 323.774 276.565 323.314 277.808 323.314C278.868 323.314 279.674 323.572 280.225 324.088C280.781 324.604 280.995 325.491 280.866 326.751ZM290.095 325.063C290.312 325.538 290.405 326.092 290.376 326.725C290.382 327.158 290.282 327.85 290.077 328.799H283.178C283.002 329.754 283.063 330.521 283.362 331.102C283.667 331.676 284.262 331.963 285.146 331.963C285.973 331.963 286.688 331.69 287.291 331.146C287.643 330.829 287.921 330.463 288.126 330.047H289.682C289.564 330.393 289.345 330.779 289.022 331.207C288.706 331.629 288.375 331.975 288.029 332.244C287.449 332.713 286.787 333.029 286.043 333.193C285.639 333.287 285.196 333.334 284.716 333.334C283.544 333.334 282.642 332.909 282.009 332.06C281.376 331.204 281.224 330.009 281.552 328.474C281.874 326.962 282.545 325.734 283.564 324.791C284.584 323.848 285.756 323.376 287.08 323.376C287.748 323.376 288.363 323.534 288.926 323.851C289.488 324.161 289.878 324.565 290.095 325.063ZM288.715 327.542C288.797 326.856 288.765 326.309 288.618 325.898C288.349 325.137 287.707 324.756 286.693 324.756C285.967 324.756 285.302 325.02 284.698 325.547C284.095 326.068 283.69 326.733 283.485 327.542H288.715ZM292.705 330.047C292.641 330.574 292.688 330.979 292.846 331.26C293.133 331.77 293.769 332.024 294.753 332.024C295.339 332.024 295.881 331.898 296.379 331.646C296.883 331.389 297.19 330.993 297.302 330.46C297.39 330.056 297.275 329.748 296.959 329.537C296.76 329.408 296.341 329.259 295.702 329.089L294.516 328.772C293.754 328.573 293.209 328.351 292.881 328.104C292.289 327.677 292.075 327.085 292.239 326.329C292.427 325.438 292.898 324.718 293.654 324.167C294.416 323.616 295.339 323.341 296.423 323.341C297.841 323.341 298.775 323.757 299.227 324.589C299.508 325.116 299.578 325.685 299.438 326.294H297.943C297.99 325.937 297.932 325.611 297.768 325.318C297.492 324.902 296.906 324.694 296.01 324.694C295.412 324.694 294.935 324.809 294.577 325.037C294.226 325.266 294.009 325.567 293.927 325.942C293.839 326.353 293.971 326.681 294.322 326.927C294.527 327.073 294.847 327.202 295.28 327.313L296.273 327.568C297.352 327.844 298.058 328.11 298.392 328.368C298.919 328.772 299.089 329.408 298.901 330.275C298.726 331.113 298.254 331.837 297.486 332.446C296.725 333.056 295.693 333.36 294.393 333.36C292.992 333.36 292.066 333.044 291.615 332.411C291.17 331.772 291.026 330.984 291.185 330.047H292.705ZM312.103 319.878C310.802 321.665 309.923 322.98 309.466 323.824C308.78 325.107 308.259 326.59 307.901 328.271C307.538 329.971 307.444 331.523 307.62 332.93C307.731 333.797 308.045 335.045 308.561 336.674H307.497C306.923 335.338 306.571 334.485 306.442 334.116C306.319 333.747 306.205 333.246 306.1 332.613C305.953 331.746 305.921 330.82 306.003 329.836C306.05 329.326 306.12 328.84 306.214 328.377C306.583 326.643 307.184 325.099 308.016 323.745C308.549 322.884 309.545 321.595 311.004 319.878H312.103ZM324.337 321.935C324.952 323.077 325.069 324.539 324.688 326.32C324.278 328.248 323.449 329.851 322.201 331.128C320.73 332.628 318.932 333.378 316.805 333.378C314.818 333.378 313.397 332.722 312.542 331.409C311.798 330.144 311.631 328.544 312.041 326.61C312.41 324.864 313.16 323.37 314.291 322.128C315.744 320.534 317.561 319.737 319.74 319.737C322.02 319.737 323.552 320.47 324.337 321.935ZM322.887 326.347C323.209 324.829 323.071 323.607 322.474 322.682C321.882 321.756 320.897 321.293 319.521 321.293C318.185 321.293 316.995 321.753 315.952 322.673C314.915 323.587 314.206 324.938 313.825 326.725C313.521 328.154 313.626 329.361 314.142 330.346C314.657 331.324 315.727 331.813 317.35 331.813C318.891 331.813 320.121 331.263 321.041 330.161C321.967 329.054 322.582 327.782 322.887 326.347ZM331.799 325.547C332.537 325.547 333.132 325.444 333.583 325.239C334.298 324.917 334.743 324.337 334.919 323.499C335.101 322.655 334.881 322.087 334.26 321.794C333.902 321.63 333.343 321.548 332.581 321.548H329.461L328.617 325.547H331.799ZM331.122 331.506C332.194 331.506 333.023 331.195 333.609 330.574C333.979 330.182 334.225 329.707 334.348 329.15C334.547 328.213 334.263 327.574 333.495 327.234C333.091 327.053 332.522 326.962 331.79 326.962H328.318L327.352 331.506H331.122ZM328.063 320.089H333.609C335.121 320.089 336.1 320.54 336.545 321.442C336.809 321.976 336.864 322.591 336.712 323.288C336.542 324.103 336.17 324.771 335.596 325.292C335.297 325.567 334.898 325.819 334.4 326.048C335.004 326.3 335.438 326.584 335.701 326.9C336.164 327.463 336.29 328.239 336.079 329.229C335.903 330.062 335.481 330.814 334.813 331.488C333.823 332.496 332.479 333 330.779 333H325.321L328.063 320.089ZM339.393 328.834C339.281 329.566 339.328 330.161 339.533 330.618C339.932 331.474 340.863 331.901 342.328 331.901C342.984 331.901 343.603 331.808 344.183 331.62C345.302 331.257 345.961 330.606 346.16 329.669C346.312 328.966 346.198 328.465 345.817 328.166C345.437 327.873 344.795 327.618 343.893 327.401L342.223 327.006C341.139 326.748 340.392 326.464 339.981 326.153C339.278 325.614 339.041 324.809 339.27 323.736C339.516 322.576 340.119 321.624 341.08 320.88C342.041 320.136 343.257 319.764 344.728 319.764C346.081 319.764 347.159 320.092 347.962 320.748C348.771 321.398 349.022 322.441 348.718 323.877H347.074C347.133 323.186 347.06 322.655 346.854 322.286C346.462 321.612 345.627 321.275 344.35 321.275C343.318 321.275 342.53 321.492 341.985 321.926C341.446 322.359 341.115 322.863 340.992 323.438C340.857 324.07 341.021 324.533 341.484 324.826C341.789 325.014 342.521 325.248 343.682 325.529L345.404 325.942C346.236 326.142 346.852 326.414 347.25 326.76C347.947 327.363 348.173 328.239 347.927 329.388C347.622 330.817 346.884 331.84 345.712 332.455C344.54 333.07 343.266 333.378 341.889 333.378C340.283 333.378 339.114 332.968 338.382 332.147C337.649 331.333 337.438 330.229 337.749 328.834H339.393ZM347.856 336.674C349.169 334.857 350.048 333.533 350.493 332.701C351.167 331.441 351.686 329.965 352.049 328.271C352.406 326.578 352.497 325.028 352.321 323.622C352.216 322.755 351.905 321.507 351.39 319.878H352.453C353.051 321.319 353.408 322.21 353.525 322.55C353.643 322.884 353.751 323.347 353.851 323.938C353.974 324.671 354.018 325.395 353.982 326.109C353.953 326.824 353.868 327.513 353.728 328.175C353.358 329.909 352.755 331.456 351.917 332.815C351.384 333.688 350.394 334.975 348.946 336.674H347.856Z" fill="white"/>
<path d="M0.390625 30.7305H10.625V56.9805H0.390625V30.7305ZM16.0547 30.7305H26.2891V48.6602H46.7773V56.9805H16.0547V30.7305ZM77.3438 42.918H89.8438C90.4492 42.918 90.9766 42.7031 91.4062 42.2734C91.8555 41.8242 92.0703 41.2969 92.0703 40.6914C92.0703 40.0664 91.8555 39.5391 91.4062 39.1094C90.9766 38.6602 90.4492 38.4453 89.8438 38.4453H77.3438V42.918ZM67.1094 30.7695H92.4023C97.8125 30.7109 102.402 35.2617 102.324 40.6914C102.402 46.1016 97.8125 50.6914 92.4023 50.6133H77.3438V57.0195H67.1094V30.7695ZM130.723 44.1875V30.7305H140.977V44.832C141.016 54.7539 132.891 57.6055 123.047 57.625C113.203 57.6055 105.078 54.7539 105.117 44.832V30.7305H115.352V44.1875C115.312 48.5039 118.848 49.2461 123.047 49.3047C127.227 49.2461 130.781 48.5039 130.723 44.1875ZM171.191 44.6367V30.7305H181.445V56.9805H169.922L155.82 40.9453V56.9805H145.586V30.7305H159.668L171.191 44.6367ZM207.402 57.0195H197.168V39.0898H185V30.7695H219.57V39.0898H207.402V57.0195ZM238.281 30.0859C248.164 30.0859 256.191 32.9766 256.191 42.8984V44.8125C256.23 54.7344 248.145 57.6055 238.281 57.625C228.398 57.6055 220.312 54.7344 220.352 44.8125V42.8984C220.312 32.957 228.398 30.1055 238.281 30.0859ZM245.957 44.168V43.5234C246.016 39.2461 242.461 38.4648 238.281 38.4062C234.082 38.4648 230.527 39.2461 230.586 43.5234V44.168C230.527 48.4648 234.082 49.2461 238.281 49.3047C242.461 49.2461 246.016 48.4648 245.957 44.168ZM25.9961 90.6367V76.7305H36.25V102.98H24.7266L10.625 86.9453V102.98H0.390625V76.7305H14.4727L25.9961 90.6367ZM57.8125 76.0859C67.6953 76.0859 75.7227 78.9766 75.7227 88.8984V90.8125C75.7617 100.734 67.6758 103.605 57.8125 103.625C47.9297 103.605 39.8438 100.734 39.8828 90.8125V88.8984C39.8438 78.957 47.9297 76.1055 57.8125 76.0859ZM65.4883 90.168V89.5234C65.5469 85.2461 61.9922 84.4648 57.8125 84.4062C53.6133 84.4648 50.0586 85.2461 50.1172 89.5234V90.168C50.0586 94.4648 53.6133 95.2461 57.8125 95.3047C61.9922 95.2461 65.5469 94.4648 65.4883 90.168ZM104.395 90.6367V76.7305H114.648V102.98H103.125L89.0234 86.9453V102.98H78.7891V76.7305H92.8711L104.395 90.6367ZM134.961 103.02V76.7695H165.684V83.4883H145.195V86.8477H165.684V92.9219H145.195V96.2812H165.684V103.02H134.961ZM11.1133 131.383C11.1133 132.535 14.2969 132.691 18.418 132.887C25.7422 133.258 36.0352 133.766 36.0156 140.348C36.0156 147.848 27.4219 149.625 18.2031 149.625C9.00391 149.605 1.36719 148.492 0.390625 140.348H11.1133C12.2852 142.379 15 142.906 18.2031 142.906C21.3867 142.906 25.293 142.379 25.293 140.348C25.293 139.195 22.1094 139.02 17.9883 138.824C10.6641 138.453 0.371094 137.945 0.390625 131.383C0.390625 123.883 8.98438 122.086 18.2031 122.086C27.4023 122.145 35.0391 123.18 36.0156 131.383H25.293C24.1211 129.312 21.4062 128.824 18.2031 128.824C15.0195 128.824 11.1133 129.293 11.1133 131.383ZM58.7305 149.02H48.4961V131.09H36.3281V122.77H70.8984V131.09H58.7305V149.02ZM99.9805 136.188V122.73H110.234V136.832C110.273 146.754 102.148 149.605 92.3047 149.625C82.4609 149.605 74.3359 146.754 74.375 136.832V122.73H84.6094V136.188C84.5703 140.504 88.1055 141.246 92.3047 141.305C96.4844 141.246 100.039 140.504 99.9805 136.188ZM125.078 134.918H137.578C138.184 134.918 138.711 134.703 139.141 134.273C139.59 133.824 139.805 133.297 139.805 132.691C139.805 132.066 139.59 131.539 139.141 131.109C138.711 130.66 138.184 130.445 137.578 130.445H125.078V134.918ZM114.844 122.77H140.137C145.547 122.711 150.137 127.262 150.059 132.691C150.137 138.102 145.547 142.691 140.137 142.613H125.078V149.02H114.844V122.77ZM152.852 122.73H163.086V148.98H152.852V122.73ZM168.516 122.75H193.809C199.219 122.691 203.809 127.242 203.73 132.672C203.73 134.645 203.203 136.441 202.148 138.043C201.113 139.625 199.727 140.836 198.008 141.637L203.73 149H192.832L187.891 142.594H178.75V149H168.516V122.75ZM191.23 130.426H178.75V134.898H191.23C191.855 134.898 192.383 134.684 192.812 134.254C193.262 133.805 193.477 133.277 193.477 132.672C193.477 131.422 192.48 130.426 191.23 130.426ZM206.914 149.02V122.77H237.637V129.488H217.148V132.848H237.637V138.922H217.148V142.281H237.637V149.02H206.914ZM10.625 188.77H24.3945C25.2734 188.77 25.9961 187.891 25.9961 187.012C25.9961 186.133 25.2734 185.254 24.3945 185.254H10.625V188.77ZM22.4805 175H10.625V178.535H22.4805C23.3594 178.535 24.082 177.637 24.082 176.758C24.082 175.879 23.3594 175 22.4805 175ZM30.6445 181.445C33.6133 182.402 35.6055 184.668 35.6055 187.969C35.6641 192.559 31.7969 195.02 27.2852 195.02H0.390625V168.77H25.3516C29.9023 168.75 33.75 171.23 33.6914 175.801C33.6914 178.32 32.5195 180.254 30.6445 181.445ZM38.3594 195.02V168.77H69.082V175.488H48.5938V178.848H69.082V184.922H48.5938V188.281H69.082V195.02H38.3594ZM100.137 182.637V168.73H110.391V194.98H98.8672L84.7656 178.945V194.98H74.5312V168.73H88.6133L100.137 182.637ZM124.59 177.383C124.59 178.535 127.773 178.691 131.895 178.887C139.219 179.258 149.512 179.766 149.492 186.348C149.492 193.848 140.898 195.625 131.68 195.625C122.48 195.605 114.844 194.492 113.867 186.348H124.59C125.762 188.379 128.477 188.906 131.68 188.906C134.863 188.906 138.77 188.379 138.77 186.348C138.77 185.195 135.586 185.02 131.465 184.824C124.141 184.453 113.848 183.945 113.867 177.383C113.867 169.883 122.461 168.086 131.68 168.086C140.879 168.145 148.516 169.18 149.492 177.383H138.77C137.598 175.312 134.883 174.824 131.68 174.824C128.496 174.824 124.59 175.293 124.59 177.383ZM152.227 168.73H162.461V194.98H152.227V168.73ZM20.5664 222.367L16.9531 230.121H24.1602L20.5664 222.367ZM0.390625 241.02L14.4727 214.77H26.6406L40.7227 241.02H29.1992L27.1289 236.527H13.9844L11.9141 241.02H0.390625ZM45.4688 214.77L53.4766 232.992L61.4844 214.77H73.0078L59.5508 241.02H47.3828L33.9453 214.77H45.4688ZM85.3125 214.77L93.3203 232.992L101.328 214.77H112.852L99.3945 241.02H87.2266L73.7891 214.77H85.3125ZM113.633 214.73H123.867V240.98H113.633V214.73ZM152.188 230.102H162.676C162.031 238.969 154.258 241.625 144.805 241.625C134.961 241.605 126.836 238.754 126.875 228.812V226.898C126.836 216.977 134.961 214.125 144.805 214.086C154.258 214.105 162.031 216.762 162.676 225.609H152.188C151.23 223.031 148.32 222.426 144.805 222.426C140.625 222.484 137.07 223.227 137.129 227.543V228.188C137.07 232.465 140.625 233.246 144.805 233.305C148.32 233.305 151.25 232.68 152.188 230.102ZM165.742 214.73H175.977V240.98H165.742V214.73ZM207.012 228.637V214.73H217.266V240.98H205.742L191.641 224.945V240.98H181.406V214.73H195.488L207.012 228.637ZM238.223 222.367L234.609 230.121H241.816L238.223 222.367ZM218.047 241.02L232.129 214.77H244.297L258.379 241.02H246.855L244.785 236.527H231.641L229.57 241.02H218.047ZM259.18 214.75H284.473C289.883 214.691 294.473 219.242 294.395 224.672C294.395 226.645 293.867 228.441 292.812 230.043C291.777 231.625 290.391 232.836 288.672 233.637L294.395 241H283.496L278.555 234.594H269.414V241H259.18V214.75ZM281.895 222.426H269.414V226.898H281.895C282.52 226.898 283.047 226.684 283.477 226.254C283.926 225.805 284.141 225.277 284.141 224.672C284.141 223.422 283.145 222.426 281.895 222.426ZM297.578 241.02V214.77H328.301V221.488H307.812V224.848H328.301V230.922H307.812V234.281H328.301V241.02H297.578Z" fill="white"/>
<path d="M26.9245 0C26.5815 1.70049 26.2194 3.51435 25.8383 5.44158C25.4954 7.3688 25.1714 9.25824 24.8665 11.1099C24.5998 12.9615 24.3711 14.6431 24.1806 16.1547H14.6341L14.234 15.5312C14.5769 14.1708 15.0152 12.5459 15.5487 10.6564C16.0823 8.76699 16.6539 6.87755 17.2637 4.98811C17.9115 3.06089 18.5403 1.39818 19.1501 0H26.9245ZM12.6905 0C12.3475 1.70049 11.9855 3.51435 11.6044 5.44158C11.2614 7.3688 10.9375 9.25824 10.6326 11.1099C10.3658 12.9615 10.1372 14.6431 9.94662 16.1547H0.400151L0 15.5312C0.342987 14.1708 0.781248 12.5459 1.31478 10.6564C1.84832 8.76699 2.41996 6.87755 3.02972 4.98811C3.67758 3.06089 4.30639 1.39818 4.91614 0H12.6905Z" fill="white"/>
<path d="M301 271.155C301.343 269.454 301.705 267.64 302.086 265.713C302.429 263.786 302.753 261.896 303.058 260.045C303.325 258.193 303.553 256.512 303.744 255L313.29 255L313.69 255.624C313.347 256.984 312.909 258.609 312.376 260.498C311.842 262.388 311.27 264.277 310.661 266.167C310.013 268.094 309.384 269.757 308.774 271.155L301 271.155ZM315.234 271.155C315.577 269.454 315.939 267.64 316.32 265.713C316.663 263.786 316.987 261.896 317.292 260.045C317.558 258.193 317.787 256.512 317.978 255L327.524 255L327.924 255.624C327.581 256.984 327.143 258.609 326.61 260.498C326.076 262.388 325.504 264.277 324.895 266.167C324.247 268.094 323.618 269.757 323.008 271.155L315.234 271.155Z" fill="white"/>
<path d="M155.9 159C156.353 159.587 156.887 160.24 157.5 160.96C158.14 161.68 158.78 162.387 159.42 163.08C160.06 163.747 161.073 164.893 161.5 165.4H161.02H155.94C155.407 165.053 154.753 164.627 153.98 164.12C153.233 163.587 152.447 163.04 151.62 162.48C150.82 161.893 150.047 161.333 149.3 160.8C148.58 160.24 147.48 159.373 147 159H147.5H155.9Z" fill="white"/>
<path d="M149.9 67C150.353 67.5867 150.887 68.24 151.5 68.96C152.14 69.68 152.78 70.3867 153.42 71.08C154.06 71.7467 155.073 72.8933 155.5 73.4H155.02H149.94C149.407 73.0533 148.753 72.6267 147.98 72.12C147.233 71.5867 146.447 71.04 145.62 70.48C144.82 69.8933 144.047 69.3333 143.3 68.8C142.58 68.24 141.48 67.3733 141 67H141.5H149.9Z" fill="white"/>
</svg>
