<svg width="354" height="272" viewBox="0 0 354 272" fill="none" xmlns="http://www.w3.org/2000/svg">
<path d="M0.390625 30.7305H10.625V56.9805H0.390625V30.7305ZM16.0547 30.7305H26.2891V48.6602H46.7773V56.9805H16.0547V30.7305ZM77.3438 42.918H89.8438C90.4492 42.918 90.9766 42.7031 91.4062 42.2734C91.8555 41.8242 92.0703 41.2969 92.0703 40.6914C92.0703 40.0664 91.8555 39.5391 91.4062 39.1094C90.9766 38.6602 90.4492 38.4453 89.8438 38.4453H77.3438V42.918ZM67.1094 30.7695H92.4023C97.8125 30.7109 102.402 35.2617 102.324 40.6914C102.402 46.1016 97.8125 50.6914 92.4023 50.6133H77.3438V57.0195H67.1094V30.7695ZM130.723 44.1875V30.7305H140.977V44.832C141.016 54.7539 132.891 57.6055 123.047 57.625C113.203 57.6055 105.078 54.7539 105.117 44.832V30.7305H115.352V44.1875C115.312 48.5039 118.848 49.2461 123.047 49.3047C127.227 49.2461 130.781 48.5039 130.723 44.1875ZM171.191 44.6367V30.7305H181.445V56.9805H169.922L155.82 40.9453V56.9805H145.586V30.7305H159.668L171.191 44.6367ZM207.402 57.0195H197.168V39.0898H185V30.7695H219.57V39.0898H207.402V57.0195ZM238.281 30.0859C248.164 30.0859 256.191 32.9766 256.191 42.8984V44.8125C256.23 54.7344 248.145 57.6055 238.281 57.625C228.398 57.6055 220.312 54.7344 220.352 44.8125V42.8984C220.312 32.957 228.398 30.1055 238.281 30.0859ZM245.957 44.168V43.5234C246.016 39.2461 242.461 38.4648 238.281 38.4062C234.082 38.4648 230.527 39.2461 230.586 43.5234V44.168C230.527 48.4648 234.082 49.2461 238.281 49.3047C242.461 49.2461 246.016 48.4648 245.957 44.168ZM25.9961 90.6367V76.7305H36.25V102.98H24.7266L10.625 86.9453V102.98H0.390625V76.7305H14.4727L25.9961 90.6367ZM57.8125 76.0859C67.6953 76.0859 75.7227 78.9766 75.7227 88.8984V90.8125C75.7617 100.734 67.6758 103.605 57.8125 103.625C47.9297 103.605 39.8438 100.734 39.8828 90.8125V88.8984C39.8438 78.957 47.9297 76.1055 57.8125 76.0859ZM65.4883 90.168V89.5234C65.5469 85.2461 61.9922 84.4648 57.8125 84.4062C53.6133 84.4648 50.0586 85.2461 50.1172 89.5234V90.168C50.0586 94.4648 53.6133 95.2461 57.8125 95.3047C61.9922 95.2461 65.5469 94.4648 65.4883 90.168ZM104.395 90.6367V76.7305H114.648V102.98H103.125L89.0234 86.9453V102.98H78.7891V76.7305H92.8711L104.395 90.6367ZM134.961 103.02V76.7695H165.684V83.4883H145.195V86.8477H165.684V92.9219H145.195V96.2812H165.684V103.02H134.961ZM11.1133 131.383C11.1133 132.535 14.2969 132.691 18.418 132.887C25.7422 133.258 36.0352 133.766 36.0156 140.348C36.0156 147.848 27.4219 149.625 18.2031 149.625C9.00391 149.605 1.36719 148.492 0.390625 140.348H11.1133C12.2852 142.379 15 142.906 18.2031 142.906C21.3867 142.906 25.293 142.379 25.293 140.348C25.293 139.195 22.1094 139.02 17.9883 138.824C10.6641 138.453 0.371094 137.945 0.390625 131.383C0.390625 123.883 8.98438 122.086 18.2031 122.086C27.4023 122.145 35.0391 123.18 36.0156 131.383H25.293C24.1211 129.312 21.4062 128.824 18.2031 128.824C15.0195 128.824 11.1133 129.293 11.1133 131.383ZM58.7305 149.02H48.4961V131.09H36.3281V122.77H70.8984V131.09H58.7305V149.02ZM99.9805 136.188V122.73H110.234V136.832C110.273 146.754 102.148 149.605 92.3047 149.625C82.4609 149.605 74.3359 146.754 74.375 136.832V122.73H84.6094V136.188C84.5703 140.504 88.1055 141.246 92.3047 141.305C96.4844 141.246 100.039 140.504 99.9805 136.188ZM125.078 134.918H137.578C138.184 134.918 138.711 134.703 139.141 134.273C139.59 133.824 139.805 133.297 139.805 132.691C139.805 132.066 139.59 131.539 139.141 131.109C138.711 130.66 138.184 130.445 137.578 130.445H125.078V134.918ZM114.844 122.77H140.137C145.547 122.711 150.137 127.262 150.059 132.691C150.137 138.102 145.547 142.691 140.137 142.613H125.078V149.02H114.844V122.77ZM152.852 122.73H163.086V148.98H152.852V122.73ZM168.516 122.75H193.809C199.219 122.691 203.809 127.242 203.73 132.672C203.73 134.645 203.203 136.441 202.148 138.043C201.113 139.625 199.727 140.836 198.008 141.637L203.73 149H192.832L187.891 142.594H178.75V149H168.516V122.75ZM191.23 130.426H178.75V134.898H191.23C191.855 134.898 192.383 134.684 192.812 134.254C193.262 133.805 193.477 133.277 193.477 132.672C193.477 131.422 192.48 130.426 191.23 130.426ZM206.914 149.02V122.77H237.637V129.488H217.148V132.848H237.637V138.922H217.148V142.281H237.637V149.02H206.914ZM10.625 188.77H24.3945C25.2734 188.77 25.9961 187.891 25.9961 187.012C25.9961 186.133 25.2734 185.254 24.3945 185.254H10.625V188.77ZM22.4805 175H10.625V178.535H22.4805C23.3594 178.535 24.082 177.637 24.082 176.758C24.082 175.879 23.3594 175 22.4805 175ZM30.6445 181.445C33.6133 182.402 35.6055 184.668 35.6055 187.969C35.6641 192.559 31.7969 195.02 27.2852 195.02H0.390625V168.77H25.3516C29.9023 168.75 33.75 171.23 33.6914 175.801C33.6914 178.32 32.5195 180.254 30.6445 181.445ZM38.3594 195.02V168.77H69.082V175.488H48.5938V178.848H69.082V184.922H48.5938V188.281H69.082V195.02H38.3594ZM100.137 182.637V168.73H110.391V194.98H98.8672L84.7656 178.945V194.98H74.5312V168.73H88.6133L100.137 182.637ZM124.59 177.383C124.59 178.535 127.773 178.691 131.895 178.887C139.219 179.258 149.512 179.766 149.492 186.348C149.492 193.848 140.898 195.625 131.68 195.625C122.48 195.605 114.844 194.492 113.867 186.348H124.59C125.762 188.379 128.477 188.906 131.68 188.906C134.863 188.906 138.77 188.379 138.77 186.348C138.77 185.195 135.586 185.02 131.465 184.824C124.141 184.453 113.848 183.945 113.867 177.383C113.867 169.883 122.461 168.086 131.68 168.086C140.879 168.145 148.516 169.18 149.492 177.383H138.77C137.598 175.312 134.883 174.824 131.68 174.824C128.496 174.824 124.59 175.293 124.59 177.383ZM152.227 168.73H162.461V194.98H152.227V168.73ZM20.5664 222.367L16.9531 230.121H24.1602L20.5664 222.367ZM0.390625 241.02L14.4727 214.77H26.6406L40.7227 241.02H29.1992L27.1289 236.527H13.9844L11.9141 241.02H0.390625ZM45.4688 214.77L53.4766 232.992L61.4844 214.77H73.0078L59.5508 241.02H47.3828L33.9453 214.77H45.4688ZM85.3125 214.77L93.3203 232.992L101.328 214.77H112.852L99.3945 241.02H87.2266L73.7891 214.77H85.3125ZM113.633 214.73H123.867V240.98H113.633V214.73ZM152.188 230.102H162.676C162.031 238.969 154.258 241.625 144.805 241.625C134.961 241.605 126.836 238.754 126.875 228.812V226.898C126.836 216.977 134.961 214.125 144.805 214.086C154.258 214.105 162.031 216.762 162.676 225.609H152.188C151.23 223.031 148.32 222.426 144.805 222.426C140.625 222.484 137.07 223.227 137.129 227.543V228.188C137.07 232.465 140.625 233.246 144.805 233.305C148.32 233.305 151.25 232.68 152.188 230.102ZM165.742 214.73H175.977V240.98H165.742V214.73ZM207.012 228.637V214.73H217.266V240.98H205.742L191.641 224.945V240.98H181.406V214.73H195.488L207.012 228.637ZM238.223 222.367L234.609 230.121H241.816L238.223 222.367ZM218.047 241.02L232.129 214.77H244.297L258.379 241.02H246.855L244.785 236.527H231.641L229.57 241.02H218.047ZM259.18 214.75H284.473C289.883 214.691 294.473 219.242 294.395 224.672C294.395 226.645 293.867 228.441 292.812 230.043C291.777 231.625 290.391 232.836 288.672 233.637L294.395 241H283.496L278.555 234.594H269.414V241H259.18V214.75ZM281.895 222.426H269.414V226.898H281.895C282.52 226.898 283.047 226.684 283.477 226.254C283.926 225.805 284.141 225.277 284.141 224.672C284.141 223.422 283.145 222.426 281.895 222.426ZM297.578 241.02V214.77H328.301V221.488H307.812V224.848H328.301V230.922H307.812V234.281H328.301V241.02H297.578Z" fill="white"/>
<path d="M26.9245 0C26.5815 1.70049 26.2194 3.51435 25.8383 5.44158C25.4954 7.3688 25.1714 9.25824 24.8665 11.1099C24.5998 12.9615 24.3711 14.6431 24.1806 16.1547H14.6341L14.234 15.5312C14.5769 14.1708 15.0152 12.5459 15.5487 10.6564C16.0823 8.76699 16.6539 6.87755 17.2637 4.98811C17.9115 3.06089 18.5403 1.39818 19.1501 0H26.9245ZM12.6905 0C12.3475 1.70049 11.9855 3.51435 11.6044 5.44158C11.2614 7.3688 10.9375 9.25824 10.6326 11.1099C10.3658 12.9615 10.1372 14.6431 9.94662 16.1547H0.400151L0 15.5312C0.342987 14.1708 0.781248 12.5459 1.31478 10.6564C1.84832 8.76699 2.41996 6.87755 3.02972 4.98811C3.67758 3.06089 4.30639 1.39818 4.91614 0H12.6905Z" fill="white"/>
<path d="M301 271.155C301.343 269.454 301.705 267.64 302.086 265.713C302.429 263.786 302.753 261.896 303.058 260.045C303.325 258.193 303.553 256.512 303.744 255L313.29 255L313.69 255.624C313.347 256.984 312.909 258.609 312.376 260.498C311.842 262.388 311.27 264.277 310.661 266.167C310.013 268.094 309.384 269.757 308.774 271.155L301 271.155ZM315.234 271.155C315.577 269.454 315.939 267.64 316.32 265.713C316.663 263.786 316.987 261.896 317.292 260.045C317.558 258.193 317.787 256.512 317.978 255L327.524 255L327.924 255.624C327.581 256.984 327.143 258.609 326.61 260.498C326.076 262.388 325.504 264.277 324.895 266.167C324.247 268.094 323.618 269.757 323.008 271.155L315.234 271.155Z" fill="white"/>
<path d="M155.9 159C156.353 159.587 156.887 160.24 157.5 160.96C158.14 161.68 158.78 162.387 159.42 163.08C160.06 163.747 161.073 164.893 161.5 165.4H161.02H155.94C155.407 165.053 154.753 164.627 153.98 164.12C153.233 163.587 152.447 163.04 151.62 162.48C150.82 161.893 150.047 161.333 149.3 160.8C148.58 160.24 147.48 159.373 147 159H147.5H155.9Z" fill="white"/>
<path d="M149.9 67C150.353 67.5867 150.887 68.24 151.5 68.96C152.14 69.68 152.78 70.3867 153.42 71.08C154.06 71.7467 155.073 72.8933 155.5 73.4H155.02H149.94C149.407 73.0533 148.753 72.6267 147.98 72.12C147.233 71.5867 146.447 71.04 145.62 70.48C144.82 69.8933 144.047 69.3333 143.3 68.8C142.58 68.24 141.48 67.3733 141 67H141.5H149.9Z" fill="white"/>
</svg>
