<svg width="354" height="300" viewBox="0 0 354 300" fill="none" xmlns="http://www.w3.org/2000/svg">
<path d="M31.1953 28.1641V11.4766H43.5V42.9766H29.6719L12.75 23.7344V42.9766H0.46875V11.4766H17.3672L31.1953 28.1641ZM69.375 10.7031C81.2344 10.7031 90.8672 14.1719 90.8672 26.0781V28.375C90.9141 40.2812 81.2109 43.7266 69.375 43.75C57.5156 43.7266 47.8125 40.2812 47.8594 28.375V26.0781C47.8125 14.1484 57.5156 10.7266 69.375 10.7031ZM78.5859 27.6016V26.8281C78.6562 21.6953 74.3906 20.7578 69.375 20.6875C64.3359 20.7578 60.0703 21.6953 60.1406 26.8281V27.6016C60.0703 32.7578 64.3359 33.6953 69.375 33.7656C74.3906 33.6953 78.6562 32.7578 78.5859 27.6016ZM125.273 28.1641V11.4766H137.578V42.9766H123.75L106.828 23.7344V42.9766H94.5469V11.4766H111.445L125.273 28.1641ZM27.3516 98.0234H15.0703V76.5078H0.46875V66.5234H41.9531V76.5078H27.3516V98.0234ZM76.8516 82.625V66.4766H89.1562V83.3984C89.2031 95.3047 79.4531 98.7266 67.6406 98.75C55.8281 98.7266 46.0781 95.3047 46.125 83.3984V66.4766H58.4062V82.625C58.3594 87.8047 62.6016 88.6953 67.6406 88.7656C72.6562 88.6953 76.9219 87.8047 76.8516 82.625ZM120.117 98.0234H107.836V76.5078H93.2344V66.5234H134.719V76.5078H120.117V98.0234ZM166.008 98.0234H153.727V76.5078H139.125V66.5234H180.609V76.5078H166.008V98.0234ZM203.062 65.7031C214.922 65.7031 224.555 69.1719 224.555 81.0781V83.375C224.602 95.2812 214.898 98.7266 203.062 98.75C191.203 98.7266 181.5 95.2812 181.547 83.375V81.0781C181.5 69.1484 191.203 65.7266 203.062 65.7031ZM212.273 82.6016V81.8281C212.344 76.6953 208.078 75.7578 203.062 75.6875C198.023 75.7578 193.758 76.6953 193.828 81.8281V82.6016C193.758 87.7578 198.023 88.6953 203.062 88.7656C208.078 88.6953 212.344 87.7578 212.273 82.6016ZM30.8438 139.922H43.4297C42.6562 150.562 33.3281 153.75 21.9844 153.75C10.1719 153.727 0.421875 150.305 0.46875 138.375V136.078C0.421875 124.172 10.1719 120.75 21.9844 120.703C33.3281 120.727 42.6562 123.914 43.4297 134.531H30.8438C29.6953 131.438 26.2031 130.711 21.9844 130.711C16.9688 130.781 12.7031 131.672 12.7734 136.852V137.625C12.7031 142.758 16.9688 143.695 21.9844 143.766C26.2031 143.766 29.7188 143.016 30.8438 139.922ZM47.1094 121.477H59.3906V152.977H47.1094V121.477ZM84.5156 120.703C96.375 120.703 106.008 124.172 106.008 136.078V138.375C106.055 150.281 96.3516 153.727 84.5156 153.75C72.6562 153.727 62.9531 150.281 63 138.375V136.078C62.9531 124.148 72.6562 120.727 84.5156 120.703ZM93.7266 137.602V136.828C93.7969 131.695 89.5312 130.758 84.5156 130.688C79.4766 130.758 75.2109 131.695 75.2812 136.828V137.602C75.2109 142.758 79.4766 143.695 84.5156 143.766C89.5312 143.695 93.7969 142.758 93.7266 137.602ZM160.781 139.922H173.367C172.594 150.562 163.266 153.75 151.922 153.75C140.109 153.727 130.359 150.305 130.406 138.375V136.078C130.359 124.172 140.109 120.75 151.922 120.703C163.266 120.727 172.594 123.914 173.367 134.531H160.781C159.633 131.438 156.141 130.711 151.922 130.711C146.906 130.781 142.641 131.672 142.711 136.852V137.625C142.641 142.758 146.906 143.695 151.922 143.766C156.141 143.766 159.656 143.016 160.781 139.922ZM207.773 142.219H189.328V152.977H177.047V121.477H189.328V132.234H207.773V121.477H220.078V152.977H207.773V142.219ZM227.25 153.023V121.523H264.117V129.586H239.531V133.617H264.117V140.906H239.531V144.938H264.117V153.023H227.25ZM30.8438 194.922H43.4297C42.6562 205.562 33.3281 208.75 21.9844 208.75C10.1719 208.727 0.421875 205.305 0.46875 193.375V191.078C0.421875 179.172 10.1719 175.75 21.9844 175.703C33.3281 175.727 42.6562 178.914 43.4297 189.531H30.8438C29.6953 186.438 26.2031 185.711 21.9844 185.711C16.9688 185.781 12.7031 186.672 12.7734 191.852V192.625C12.7031 197.758 16.9688 198.695 21.9844 198.766C26.2031 198.766 29.7188 198.016 30.8438 194.922ZM68.0156 175.703C79.875 175.703 89.5078 179.172 89.5078 191.078V193.375C89.5547 205.281 79.8516 208.727 68.0156 208.75C56.1562 208.727 46.4531 205.281 46.5 193.375V191.078C46.4531 179.148 56.1562 175.727 68.0156 175.703ZM77.2266 192.602V191.828C77.2969 186.695 73.0312 185.758 68.0156 185.688C62.9766 185.758 58.7109 186.695 58.7812 191.828V192.602C58.7109 197.758 62.9766 198.695 68.0156 198.766C73.0312 198.695 77.2969 197.758 77.2266 192.602ZM123.914 193.164V176.477H136.219V207.977H122.391L105.469 188.734V207.977H93.1875V176.477H110.086L123.914 193.164ZM167.367 208.023H155.086V186.508H140.484V176.523H181.969V186.508H167.367V208.023ZM198.023 185.641L193.688 194.945H202.336L198.023 185.641ZM173.812 208.023L190.711 176.523H205.312L222.211 208.023H208.383L205.898 202.633H190.125L187.641 208.023H173.812ZM246.609 208.023V176.523H283.477V184.586H258.891V188.617H283.477V195.906H258.891V199.938H283.477V208.023H246.609ZM14.2969 231.523L23.9062 253.391L33.5156 231.523H47.3438L31.1953 263.023H16.5938L0.46875 231.523H14.2969ZM48.2812 231.477H60.5625V262.977H48.2812V231.477ZM76.7578 241.859C76.7578 243.242 80.5781 243.43 85.5234 243.664C94.3125 244.109 106.664 244.719 106.641 252.617C106.641 261.617 96.3281 263.75 85.2656 263.75C74.2266 263.727 65.0625 262.391 63.8906 252.617H76.7578C78.1641 255.055 81.4219 255.688 85.2656 255.688C89.0859 255.688 93.7734 255.055 93.7734 252.617C93.7734 251.234 89.9531 251.023 85.0078 250.789C76.2188 250.344 63.8672 249.734 63.8906 241.859C63.8906 232.859 74.2031 230.703 85.2656 230.703C96.3047 230.773 105.469 232.016 106.641 241.859H93.7734C92.3672 239.375 89.1094 238.789 85.2656 238.789C81.4453 238.789 76.7578 239.352 76.7578 241.859ZM109.922 231.477H122.203V262.977H109.922V231.477ZM141 255.523H157.523C158.578 255.523 159.445 254.469 159.445 253.414C159.445 252.359 158.578 251.305 157.523 251.305H141V255.523ZM155.227 239H141V243.242H155.227C156.281 243.242 157.148 242.164 157.148 241.109C157.148 240.055 156.281 239 155.227 239ZM165.023 246.734C168.586 247.883 170.977 250.602 170.977 254.562C171.047 260.07 166.406 263.023 160.992 263.023H128.719V231.523H158.672C164.133 231.5 168.75 234.477 168.68 239.961C168.68 242.984 167.273 245.305 165.023 246.734ZM174.281 231.477H186.562V262.977H174.281V231.477ZM193.078 231.477H205.359V252.992H229.945V262.977H193.078V231.477ZM234.141 263.023V231.523H271.008V239.586H246.422V243.617H271.008V250.906H246.422V254.938H271.008V263.023H234.141Z" fill="white"/>
<path d="M89 115L81.8471 106H70L81.3255 115H89Z" fill="white"/>
<path d="M272 172L264.847 163H253L264.325 172H272Z" fill="white"/>
</svg>
